<mxfile host="app.diagrams.net" modified="2021-05-07T00:27:55.740Z" agent="5.0 (Windows)" etag="R4LhIGL7NtAh2X_n_3Lq" version="14.6.10" type="github">
  <diagram id="C5RBs43oDa-KdzZeNtuy" name="Page-1">
    <mxGraphModel dx="2012" dy="669" grid="1" gridSize="10" guides="1" tooltips="1" connect="1" arrows="1" fold="1" page="1" pageScale="1" pageWidth="827" pageHeight="1169" math="0" shadow="0">
      <root>
        <mxCell id="WIyWlLk6GJQsqaUBKTNV-0" />
        <mxCell id="WIyWlLk6GJQsqaUBKTNV-1" parent="WIyWlLk6GJQsqaUBKTNV-0" />
        <mxCell id="zkfFHV4jXpPFQw0GAbJ--0" value="Order" style="swimlane;fontStyle=2;align=center;verticalAlign=top;childLayout=stackLayout;horizontal=1;startSize=26;horizontalStack=0;resizeParent=1;resizeLast=0;collapsible=1;marginBottom=0;rounded=0;shadow=0;strokeWidth=1;" parent="WIyWlLk6GJQsqaUBKTNV-1" vertex="1">
          <mxGeometry width="160" height="240" as="geometry">
            <mxRectangle width="160" height="26" as="alternateBounds" />
          </mxGeometry>
        </mxCell>
        <mxCell id="zkfFHV4jXpPFQw0GAbJ--1" value="OrderID" style="text;align=left;verticalAlign=top;spacingLeft=4;spacingRight=4;overflow=hidden;rotatable=0;points=[[0,0.5],[1,0.5]];portConstraint=eastwest;" parent="zkfFHV4jXpPFQw0GAbJ--0" vertex="1">
          <mxGeometry y="26" width="160" height="24" as="geometry" />
        </mxCell>
        <mxCell id="zkfFHV4jXpPFQw0GAbJ--2" value="OrderDateTime" style="text;align=left;verticalAlign=top;spacingLeft=4;spacingRight=4;overflow=hidden;rotatable=0;points=[[0,0.5],[1,0.5]];portConstraint=eastwest;rounded=0;shadow=0;html=0;" parent="zkfFHV4jXpPFQw0GAbJ--0" vertex="1">
          <mxGeometry y="50" width="160" height="20" as="geometry" />
        </mxCell>
        <mxCell id="zkfFHV4jXpPFQw0GAbJ--3" value="UserID" style="text;align=left;verticalAlign=top;spacingLeft=4;spacingRight=4;overflow=hidden;rotatable=0;points=[[0,0.5],[1,0.5]];portConstraint=eastwest;rounded=0;shadow=0;html=0;" parent="zkfFHV4jXpPFQw0GAbJ--0" vertex="1">
          <mxGeometry y="70" width="160" height="20" as="geometry" />
        </mxCell>
        <mxCell id="amZI-zdP5LKouah3iNAe-0" value="OrderStatus" style="text;align=left;verticalAlign=top;spacingLeft=4;spacingRight=4;overflow=hidden;rotatable=0;points=[[0,0.5],[1,0.5]];portConstraint=eastwest;rounded=0;shadow=0;html=0;" vertex="1" parent="zkfFHV4jXpPFQw0GAbJ--0">
          <mxGeometry y="90" width="160" height="20" as="geometry" />
        </mxCell>
        <mxCell id="amZI-zdP5LKouah3iNAe-1" value="DeliveryOptions" style="text;align=left;verticalAlign=top;spacingLeft=4;spacingRight=4;overflow=hidden;rotatable=0;points=[[0,0.5],[1,0.5]];portConstraint=eastwest;rounded=0;shadow=0;html=0;" vertex="1" parent="zkfFHV4jXpPFQw0GAbJ--0">
          <mxGeometry y="110" width="160" height="20" as="geometry" />
        </mxCell>
        <mxCell id="amZI-zdP5LKouah3iNAe-2" value="OrderDetails" style="text;align=left;verticalAlign=top;spacingLeft=4;spacingRight=4;overflow=hidden;rotatable=0;points=[[0,0.5],[1,0.5]];portConstraint=eastwest;rounded=0;shadow=0;html=0;" vertex="1" parent="zkfFHV4jXpPFQw0GAbJ--0">
          <mxGeometry y="130" width="160" height="20" as="geometry" />
        </mxCell>
        <mxCell id="amZI-zdP5LKouah3iNAe-3" value="Rewards" style="text;align=left;verticalAlign=top;spacingLeft=4;spacingRight=4;overflow=hidden;rotatable=0;points=[[0,0.5],[1,0.5]];portConstraint=eastwest;rounded=0;shadow=0;html=0;" vertex="1" parent="zkfFHV4jXpPFQw0GAbJ--0">
          <mxGeometry y="150" width="160" height="20" as="geometry" />
        </mxCell>
        <mxCell id="zkfFHV4jXpPFQw0GAbJ--4" value="" style="line;html=1;strokeWidth=1;align=left;verticalAlign=middle;spacingTop=-1;spacingLeft=3;spacingRight=3;rotatable=0;labelPosition=right;points=[];portConstraint=eastwest;" parent="zkfFHV4jXpPFQw0GAbJ--0" vertex="1">
          <mxGeometry y="170" width="160" height="30" as="geometry" />
        </mxCell>
        <mxCell id="zkfFHV4jXpPFQw0GAbJ--5" value="Get" style="text;align=left;verticalAlign=top;spacingLeft=4;spacingRight=4;overflow=hidden;rotatable=0;points=[[0,0.5],[1,0.5]];portConstraint=eastwest;" parent="zkfFHV4jXpPFQw0GAbJ--0" vertex="1">
          <mxGeometry y="200" width="160" height="20" as="geometry" />
        </mxCell>
        <mxCell id="amZI-zdP5LKouah3iNAe-4" value="Set" style="text;align=left;verticalAlign=top;spacingLeft=4;spacingRight=4;overflow=hidden;rotatable=0;points=[[0,0.5],[1,0.5]];portConstraint=eastwest;" vertex="1" parent="zkfFHV4jXpPFQw0GAbJ--0">
          <mxGeometry y="220" width="160" height="20" as="geometry" />
        </mxCell>
        <mxCell id="zkfFHV4jXpPFQw0GAbJ--6" value="Account" style="swimlane;fontStyle=1;align=center;verticalAlign=top;childLayout=stackLayout;horizontal=1;startSize=26;horizontalStack=0;resizeParent=1;resizeLast=0;collapsible=1;marginBottom=0;rounded=0;shadow=0;strokeWidth=1;fontSize=10;" parent="WIyWlLk6GJQsqaUBKTNV-1" vertex="1" collapsed="1">
          <mxGeometry x="-827" y="760" width="160" height="26" as="geometry">
            <mxRectangle x="-520" y="440" width="670" height="346" as="alternateBounds" />
          </mxGeometry>
        </mxCell>
        <mxCell id="zkfFHV4jXpPFQw0GAbJ--8" value="- _UserManager: UserManager" style="text;align=left;verticalAlign=top;spacingLeft=4;spacingRight=4;overflow=hidden;rotatable=0;points=[[0,0.5],[1,0.5]];portConstraint=eastwest;rounded=0;shadow=0;html=0;fontSize=10;" parent="zkfFHV4jXpPFQw0GAbJ--6" vertex="1">
          <mxGeometry y="26" width="160" height="26" as="geometry" />
        </mxCell>
        <mxCell id="amZI-zdP5LKouah3iNAe-63" value="- _SignInManager: SignInManager&#xa;" style="text;align=left;verticalAlign=top;spacingLeft=4;spacingRight=4;overflow=hidden;rotatable=0;points=[[0,0.5],[1,0.5]];portConstraint=eastwest;rounded=0;shadow=0;html=0;fontSize=10;" vertex="1" parent="zkfFHV4jXpPFQw0GAbJ--6">
          <mxGeometry y="52" width="160" height="26" as="geometry" />
        </mxCell>
        <mxCell id="zkfFHV4jXpPFQw0GAbJ--9" value="" style="line;html=1;strokeWidth=1;align=left;verticalAlign=middle;spacingTop=-1;spacingLeft=3;spacingRight=3;rotatable=0;labelPosition=right;points=[];portConstraint=eastwest;" parent="zkfFHV4jXpPFQw0GAbJ--6" vertex="1">
          <mxGeometry y="78" width="160" height="8" as="geometry" />
        </mxCell>
        <mxCell id="zkfFHV4jXpPFQw0GAbJ--10" value="+ IsEmailInUse(string): Task&lt;IActionResult&gt;" style="text;align=left;verticalAlign=top;spacingLeft=4;spacingRight=4;overflow=hidden;rotatable=0;points=[[0,0.5],[1,0.5]];portConstraint=eastwest;fontStyle=0;fontSize=10;" parent="zkfFHV4jXpPFQw0GAbJ--6" vertex="1">
          <mxGeometry y="86" width="160" height="26" as="geometry" />
        </mxCell>
        <mxCell id="amZI-zdP5LKouah3iNAe-65" value="+ ResetPassword([Bind(&quot;Email,Password,ConfirmPassword,Token&quot;)] ResetPasswordViewModel): Task&lt;IActionResult&gt;" style="text;align=left;verticalAlign=top;spacingLeft=4;spacingRight=4;overflow=hidden;rotatable=0;points=[[0,0.5],[1,0.5]];portConstraint=eastwest;fontStyle=0;fontSize=10;" vertex="1" parent="zkfFHV4jXpPFQw0GAbJ--6">
          <mxGeometry y="112" width="160" height="26" as="geometry" />
        </mxCell>
        <mxCell id="amZI-zdP5LKouah3iNAe-239" value="+ ResetPassword(string, string): IActionResult" style="text;align=left;verticalAlign=top;spacingLeft=4;spacingRight=4;overflow=hidden;rotatable=0;points=[[0,0.5],[1,0.5]];portConstraint=eastwest;fontStyle=0;fontSize=10;" vertex="1" parent="zkfFHV4jXpPFQw0GAbJ--6">
          <mxGeometry y="138" width="160" height="26" as="geometry" />
        </mxCell>
        <mxCell id="amZI-zdP5LKouah3iNAe-66" value="+ ForgotPassord([Bind(&quot;Email&quot;)]ForgotPasswordViewModel): Task&lt;IActionResult&gt;" style="text;align=left;verticalAlign=top;spacingLeft=4;spacingRight=4;overflow=hidden;rotatable=0;points=[[0,0.5],[1,0.5]];portConstraint=eastwest;fontStyle=0;fontSize=10;" vertex="1" parent="zkfFHV4jXpPFQw0GAbJ--6">
          <mxGeometry y="164" width="160" height="26" as="geometry" />
        </mxCell>
        <mxCell id="amZI-zdP5LKouah3iNAe-67" value="+ ChangePassword([Bind(&quot;Email,CurrentPassword,NewPassword,ConfirmNewPassword&quot;)]ChangePasswordViewModel): Task&lt;IActionResult&gt;" style="text;align=left;verticalAlign=top;spacingLeft=4;spacingRight=4;overflow=hidden;rotatable=0;points=[[0,0.5],[1,0.5]];portConstraint=eastwest;fontStyle=0;fontSize=10;" vertex="1" parent="zkfFHV4jXpPFQw0GAbJ--6">
          <mxGeometry y="190" width="160" height="26" as="geometry" />
        </mxCell>
        <mxCell id="amZI-zdP5LKouah3iNAe-68" value="+ ConfirmEmail(string, string): Task&lt;IActionResult&gt;" style="text;align=left;verticalAlign=top;spacingLeft=4;spacingRight=4;overflow=hidden;rotatable=0;points=[[0,0.5],[1,0.5]];portConstraint=eastwest;fontStyle=0;fontSize=10;" vertex="1" parent="zkfFHV4jXpPFQw0GAbJ--6">
          <mxGeometry y="216" width="160" height="26" as="geometry" />
        </mxCell>
        <mxCell id="amZI-zdP5LKouah3iNAe-69" value="+ Login(): IActionResult" style="text;align=left;verticalAlign=top;spacingLeft=4;spacingRight=4;overflow=hidden;rotatable=0;points=[[0,0.5],[1,0.5]];portConstraint=eastwest;fontStyle=0;fontSize=10;" vertex="1" parent="zkfFHV4jXpPFQw0GAbJ--6">
          <mxGeometry y="242" width="160" height="26" as="geometry" />
        </mxCell>
        <mxCell id="amZI-zdP5LKouah3iNAe-240" value="+ Login([Bind(&quot;Email,Password,RememberMe&quot;)] LogInViewModel, string): Task&lt;IActionResult&gt;" style="text;align=left;verticalAlign=top;spacingLeft=4;spacingRight=4;overflow=hidden;rotatable=0;points=[[0,0.5],[1,0.5]];portConstraint=eastwest;fontStyle=0;fontSize=10;" vertex="1" parent="zkfFHV4jXpPFQw0GAbJ--6">
          <mxGeometry y="268" width="160" height="26" as="geometry" />
        </mxCell>
        <mxCell id="amZI-zdP5LKouah3iNAe-70" value="+ Logout(): Task&lt;IActionResult&gt;" style="text;align=left;verticalAlign=top;spacingLeft=4;spacingRight=4;overflow=hidden;rotatable=0;points=[[0,0.5],[1,0.5]];portConstraint=eastwest;fontStyle=0;fontSize=10;" vertex="1" parent="zkfFHV4jXpPFQw0GAbJ--6">
          <mxGeometry y="294" width="160" height="26" as="geometry" />
        </mxCell>
        <mxCell id="amZI-zdP5LKouah3iNAe-71" value="+ Register([Bind(&quot;Email,FirstName,LastName,Address,PhoneNumber,ConfirmPassword,Password&quot;)]RegisterViewModel): Task&lt;JsonResult&gt;" style="text;align=left;verticalAlign=top;spacingLeft=4;spacingRight=4;overflow=hidden;rotatable=0;points=[[0,0.5],[1,0.5]];portConstraint=eastwest;fontStyle=0;fontSize=10;" vertex="1" parent="zkfFHV4jXpPFQw0GAbJ--6">
          <mxGeometry y="320" width="160" height="26" as="geometry" />
        </mxCell>
        <mxCell id="zkfFHV4jXpPFQw0GAbJ--17" value="OrderDetails" style="swimlane;fontStyle=0;align=center;verticalAlign=top;childLayout=stackLayout;horizontal=1;startSize=26;horizontalStack=0;resizeParent=1;resizeLast=0;collapsible=1;marginBottom=0;rounded=0;shadow=0;strokeWidth=1;" parent="WIyWlLk6GJQsqaUBKTNV-1" vertex="1">
          <mxGeometry x="200" width="160" height="260" as="geometry">
            <mxRectangle x="550" y="140" width="160" height="26" as="alternateBounds" />
          </mxGeometry>
        </mxCell>
        <mxCell id="zkfFHV4jXpPFQw0GAbJ--18" value="OrderDetailsID" style="text;align=left;verticalAlign=top;spacingLeft=4;spacingRight=4;overflow=hidden;rotatable=0;points=[[0,0.5],[1,0.5]];portConstraint=eastwest;" parent="zkfFHV4jXpPFQw0GAbJ--17" vertex="1">
          <mxGeometry y="26" width="160" height="26" as="geometry" />
        </mxCell>
        <mxCell id="zkfFHV4jXpPFQw0GAbJ--19" value="TotalPrice" style="text;align=left;verticalAlign=top;spacingLeft=4;spacingRight=4;overflow=hidden;rotatable=0;points=[[0,0.5],[1,0.5]];portConstraint=eastwest;rounded=0;shadow=0;html=0;" parent="zkfFHV4jXpPFQw0GAbJ--17" vertex="1">
          <mxGeometry y="52" width="160" height="26" as="geometry" />
        </mxCell>
        <mxCell id="zkfFHV4jXpPFQw0GAbJ--20" value="Quantity" style="text;align=left;verticalAlign=top;spacingLeft=4;spacingRight=4;overflow=hidden;rotatable=0;points=[[0,0.5],[1,0.5]];portConstraint=eastwest;rounded=0;shadow=0;html=0;" parent="zkfFHV4jXpPFQw0GAbJ--17" vertex="1">
          <mxGeometry y="78" width="160" height="26" as="geometry" />
        </mxCell>
        <mxCell id="zkfFHV4jXpPFQw0GAbJ--21" value="OrderID" style="text;align=left;verticalAlign=top;spacingLeft=4;spacingRight=4;overflow=hidden;rotatable=0;points=[[0,0.5],[1,0.5]];portConstraint=eastwest;rounded=0;shadow=0;html=0;" parent="zkfFHV4jXpPFQw0GAbJ--17" vertex="1">
          <mxGeometry y="104" width="160" height="26" as="geometry" />
        </mxCell>
        <mxCell id="zkfFHV4jXpPFQw0GAbJ--22" value="Order" style="text;align=left;verticalAlign=top;spacingLeft=4;spacingRight=4;overflow=hidden;rotatable=0;points=[[0,0.5],[1,0.5]];portConstraint=eastwest;rounded=0;shadow=0;html=0;" parent="zkfFHV4jXpPFQw0GAbJ--17" vertex="1">
          <mxGeometry y="130" width="160" height="26" as="geometry" />
        </mxCell>
        <mxCell id="amZI-zdP5LKouah3iNAe-5" value="ProductID" style="text;align=left;verticalAlign=top;spacingLeft=4;spacingRight=4;overflow=hidden;rotatable=0;points=[[0,0.5],[1,0.5]];portConstraint=eastwest;rounded=0;shadow=0;html=0;" vertex="1" parent="zkfFHV4jXpPFQw0GAbJ--17">
          <mxGeometry y="156" width="160" height="26" as="geometry" />
        </mxCell>
        <mxCell id="amZI-zdP5LKouah3iNAe-6" value="Product" style="text;align=left;verticalAlign=top;spacingLeft=4;spacingRight=4;overflow=hidden;rotatable=0;points=[[0,0.5],[1,0.5]];portConstraint=eastwest;rounded=0;shadow=0;html=0;" vertex="1" parent="zkfFHV4jXpPFQw0GAbJ--17">
          <mxGeometry y="182" width="160" height="26" as="geometry" />
        </mxCell>
        <mxCell id="zkfFHV4jXpPFQw0GAbJ--23" value="" style="line;html=1;strokeWidth=1;align=left;verticalAlign=middle;spacingTop=-1;spacingLeft=3;spacingRight=3;rotatable=0;labelPosition=right;points=[];portConstraint=eastwest;" parent="zkfFHV4jXpPFQw0GAbJ--17" vertex="1">
          <mxGeometry y="208" width="160" height="12" as="geometry" />
        </mxCell>
        <mxCell id="amZI-zdP5LKouah3iNAe-59" value="Set" style="text;align=left;verticalAlign=top;spacingLeft=4;spacingRight=4;overflow=hidden;rotatable=0;points=[[0,0.5],[1,0.5]];portConstraint=eastwest;" vertex="1" parent="zkfFHV4jXpPFQw0GAbJ--17">
          <mxGeometry y="220" width="160" height="20" as="geometry" />
        </mxCell>
        <mxCell id="amZI-zdP5LKouah3iNAe-58" value="Get" style="text;align=left;verticalAlign=top;spacingLeft=4;spacingRight=4;overflow=hidden;rotatable=0;points=[[0,0.5],[1,0.5]];portConstraint=eastwest;" vertex="1" parent="zkfFHV4jXpPFQw0GAbJ--17">
          <mxGeometry y="240" width="160" height="20" as="geometry" />
        </mxCell>
        <mxCell id="amZI-zdP5LKouah3iNAe-7" value="PaginatedList" style="swimlane;fontStyle=0;align=center;verticalAlign=top;childLayout=stackLayout;horizontal=1;startSize=26;horizontalStack=0;resizeParent=1;resizeLast=0;collapsible=1;marginBottom=0;rounded=0;shadow=0;strokeWidth=1;" vertex="1" parent="WIyWlLk6GJQsqaUBKTNV-1">
          <mxGeometry x="400" width="160" height="220" as="geometry">
            <mxRectangle x="550" y="140" width="160" height="26" as="alternateBounds" />
          </mxGeometry>
        </mxCell>
        <mxCell id="amZI-zdP5LKouah3iNAe-8" value="PageIndex" style="text;align=left;verticalAlign=top;spacingLeft=4;spacingRight=4;overflow=hidden;rotatable=0;points=[[0,0.5],[1,0.5]];portConstraint=eastwest;" vertex="1" parent="amZI-zdP5LKouah3iNAe-7">
          <mxGeometry y="26" width="160" height="26" as="geometry" />
        </mxCell>
        <mxCell id="amZI-zdP5LKouah3iNAe-9" value="TotalPages" style="text;align=left;verticalAlign=top;spacingLeft=4;spacingRight=4;overflow=hidden;rotatable=0;points=[[0,0.5],[1,0.5]];portConstraint=eastwest;rounded=0;shadow=0;html=0;" vertex="1" parent="amZI-zdP5LKouah3iNAe-7">
          <mxGeometry y="52" width="160" height="26" as="geometry" />
        </mxCell>
        <mxCell id="amZI-zdP5LKouah3iNAe-13" value="ProductID" style="text;align=left;verticalAlign=top;spacingLeft=4;spacingRight=4;overflow=hidden;rotatable=0;points=[[0,0.5],[1,0.5]];portConstraint=eastwest;rounded=0;shadow=0;html=0;" vertex="1" parent="amZI-zdP5LKouah3iNAe-7">
          <mxGeometry y="78" width="160" height="26" as="geometry" />
        </mxCell>
        <mxCell id="amZI-zdP5LKouah3iNAe-14" value="Product" style="text;align=left;verticalAlign=top;spacingLeft=4;spacingRight=4;overflow=hidden;rotatable=0;points=[[0,0.5],[1,0.5]];portConstraint=eastwest;rounded=0;shadow=0;html=0;" vertex="1" parent="amZI-zdP5LKouah3iNAe-7">
          <mxGeometry y="104" width="160" height="26" as="geometry" />
        </mxCell>
        <mxCell id="amZI-zdP5LKouah3iNAe-15" value="" style="line;html=1;strokeWidth=1;align=left;verticalAlign=middle;spacingTop=-1;spacingLeft=3;spacingRight=3;rotatable=0;labelPosition=right;points=[];portConstraint=eastwest;" vertex="1" parent="amZI-zdP5LKouah3iNAe-7">
          <mxGeometry y="130" width="160" height="12" as="geometry" />
        </mxCell>
        <mxCell id="amZI-zdP5LKouah3iNAe-16" value="HasPreviousPage&#xa;" style="text;align=left;verticalAlign=top;spacingLeft=4;spacingRight=4;overflow=hidden;rotatable=0;points=[[0,0.5],[1,0.5]];portConstraint=eastwest;rounded=0;shadow=0;html=0;" vertex="1" parent="amZI-zdP5LKouah3iNAe-7">
          <mxGeometry y="142" width="160" height="26" as="geometry" />
        </mxCell>
        <mxCell id="amZI-zdP5LKouah3iNAe-17" value="HasNextPage" style="text;align=left;verticalAlign=top;spacingLeft=4;spacingRight=4;overflow=hidden;rotatable=0;points=[[0,0.5],[1,0.5]];portConstraint=eastwest;rounded=0;shadow=0;html=0;" vertex="1" parent="amZI-zdP5LKouah3iNAe-7">
          <mxGeometry y="168" width="160" height="26" as="geometry" />
        </mxCell>
        <mxCell id="amZI-zdP5LKouah3iNAe-18" value="CreateAsync" style="text;align=left;verticalAlign=top;spacingLeft=4;spacingRight=4;overflow=hidden;rotatable=0;points=[[0,0.5],[1,0.5]];portConstraint=eastwest;rounded=0;shadow=0;html=0;" vertex="1" parent="amZI-zdP5LKouah3iNAe-7">
          <mxGeometry y="194" width="160" height="26" as="geometry" />
        </mxCell>
        <mxCell id="amZI-zdP5LKouah3iNAe-20" value="Product" style="swimlane;fontStyle=0;align=center;verticalAlign=top;childLayout=stackLayout;horizontal=1;startSize=26;horizontalStack=0;resizeParent=1;resizeLast=0;collapsible=1;marginBottom=0;rounded=0;shadow=0;strokeWidth=1;" vertex="1" parent="WIyWlLk6GJQsqaUBKTNV-1">
          <mxGeometry x="600" width="160" height="850" as="geometry">
            <mxRectangle x="550" y="140" width="160" height="26" as="alternateBounds" />
          </mxGeometry>
        </mxCell>
        <mxCell id="amZI-zdP5LKouah3iNAe-21" value="ProductID" style="text;align=left;verticalAlign=top;spacingLeft=4;spacingRight=4;overflow=hidden;rotatable=0;points=[[0,0.5],[1,0.5]];portConstraint=eastwest;" vertex="1" parent="amZI-zdP5LKouah3iNAe-20">
          <mxGeometry y="26" width="160" height="26" as="geometry" />
        </mxCell>
        <mxCell id="amZI-zdP5LKouah3iNAe-22" value="ProductPrice" style="text;align=left;verticalAlign=top;spacingLeft=4;spacingRight=4;overflow=hidden;rotatable=0;points=[[0,0.5],[1,0.5]];portConstraint=eastwest;rounded=0;shadow=0;html=0;" vertex="1" parent="amZI-zdP5LKouah3iNAe-20">
          <mxGeometry y="52" width="160" height="26" as="geometry" />
        </mxCell>
        <mxCell id="amZI-zdP5LKouah3iNAe-23" value="ProductStock" style="text;align=left;verticalAlign=top;spacingLeft=4;spacingRight=4;overflow=hidden;rotatable=0;points=[[0,0.5],[1,0.5]];portConstraint=eastwest;rounded=0;shadow=0;html=0;" vertex="1" parent="amZI-zdP5LKouah3iNAe-20">
          <mxGeometry y="78" width="160" height="26" as="geometry" />
        </mxCell>
        <mxCell id="amZI-zdP5LKouah3iNAe-24" value="ProductName" style="text;align=left;verticalAlign=top;spacingLeft=4;spacingRight=4;overflow=hidden;rotatable=0;points=[[0,0.5],[1,0.5]];portConstraint=eastwest;rounded=0;shadow=0;html=0;" vertex="1" parent="amZI-zdP5LKouah3iNAe-20">
          <mxGeometry y="104" width="160" height="26" as="geometry" />
        </mxCell>
        <mxCell id="amZI-zdP5LKouah3iNAe-29" value="ProductAddedDate" style="text;align=left;verticalAlign=top;spacingLeft=4;spacingRight=4;overflow=hidden;rotatable=0;points=[[0,0.5],[1,0.5]];portConstraint=eastwest;rounded=0;shadow=0;html=0;" vertex="1" parent="amZI-zdP5LKouah3iNAe-20">
          <mxGeometry y="130" width="160" height="26" as="geometry" />
        </mxCell>
        <mxCell id="amZI-zdP5LKouah3iNAe-30" value="ProductUpdateDate" style="text;align=left;verticalAlign=top;spacingLeft=4;spacingRight=4;overflow=hidden;rotatable=0;points=[[0,0.5],[1,0.5]];portConstraint=eastwest;rounded=0;shadow=0;html=0;" vertex="1" parent="amZI-zdP5LKouah3iNAe-20">
          <mxGeometry y="156" width="160" height="26" as="geometry" />
        </mxCell>
        <mxCell id="amZI-zdP5LKouah3iNAe-31" value="ProductDiscount" style="text;align=left;verticalAlign=top;spacingLeft=4;spacingRight=4;overflow=hidden;rotatable=0;points=[[0,0.5],[1,0.5]];portConstraint=eastwest;rounded=0;shadow=0;html=0;" vertex="1" parent="amZI-zdP5LKouah3iNAe-20">
          <mxGeometry y="182" width="160" height="26" as="geometry" />
        </mxCell>
        <mxCell id="amZI-zdP5LKouah3iNAe-32" value="SaleStartDateTime" style="text;align=left;verticalAlign=top;spacingLeft=4;spacingRight=4;overflow=hidden;rotatable=0;points=[[0,0.5],[1,0.5]];portConstraint=eastwest;rounded=0;shadow=0;html=0;" vertex="1" parent="amZI-zdP5LKouah3iNAe-20">
          <mxGeometry y="208" width="160" height="26" as="geometry" />
        </mxCell>
        <mxCell id="amZI-zdP5LKouah3iNAe-33" value="SaleEndDateTime" style="text;align=left;verticalAlign=top;spacingLeft=4;spacingRight=4;overflow=hidden;rotatable=0;points=[[0,0.5],[1,0.5]];portConstraint=eastwest;rounded=0;shadow=0;html=0;" vertex="1" parent="amZI-zdP5LKouah3iNAe-20">
          <mxGeometry y="234" width="160" height="26" as="geometry" />
        </mxCell>
        <mxCell id="amZI-zdP5LKouah3iNAe-34" value="ImageUrl" style="text;align=left;verticalAlign=top;spacingLeft=4;spacingRight=4;overflow=hidden;rotatable=0;points=[[0,0.5],[1,0.5]];portConstraint=eastwest;rounded=0;shadow=0;html=0;" vertex="1" parent="amZI-zdP5LKouah3iNAe-20">
          <mxGeometry y="260" width="160" height="26" as="geometry" />
        </mxCell>
        <mxCell id="amZI-zdP5LKouah3iNAe-35" value="ReviewFiveStarsCount" style="text;align=left;verticalAlign=top;spacingLeft=4;spacingRight=4;overflow=hidden;rotatable=0;points=[[0,0.5],[1,0.5]];portConstraint=eastwest;rounded=0;shadow=0;html=0;" vertex="1" parent="amZI-zdP5LKouah3iNAe-20">
          <mxGeometry y="286" width="160" height="26" as="geometry" />
        </mxCell>
        <mxCell id="amZI-zdP5LKouah3iNAe-36" value="ReviewFourStarsCount" style="text;align=left;verticalAlign=top;spacingLeft=4;spacingRight=4;overflow=hidden;rotatable=0;points=[[0,0.5],[1,0.5]];portConstraint=eastwest;rounded=0;shadow=0;html=0;" vertex="1" parent="amZI-zdP5LKouah3iNAe-20">
          <mxGeometry y="312" width="160" height="26" as="geometry" />
        </mxCell>
        <mxCell id="amZI-zdP5LKouah3iNAe-37" value="ReviewThreeStarsCount" style="text;align=left;verticalAlign=top;spacingLeft=4;spacingRight=4;overflow=hidden;rotatable=0;points=[[0,0.5],[1,0.5]];portConstraint=eastwest;rounded=0;shadow=0;html=0;" vertex="1" parent="amZI-zdP5LKouah3iNAe-20">
          <mxGeometry y="338" width="160" height="26" as="geometry" />
        </mxCell>
        <mxCell id="amZI-zdP5LKouah3iNAe-38" value="ReviewTwoStarsCount" style="text;align=left;verticalAlign=top;spacingLeft=4;spacingRight=4;overflow=hidden;rotatable=0;points=[[0,0.5],[1,0.5]];portConstraint=eastwest;rounded=0;shadow=0;html=0;" vertex="1" parent="amZI-zdP5LKouah3iNAe-20">
          <mxGeometry y="364" width="160" height="26" as="geometry" />
        </mxCell>
        <mxCell id="amZI-zdP5LKouah3iNAe-39" value="ReviewOneStarsCount" style="text;align=left;verticalAlign=top;spacingLeft=4;spacingRight=4;overflow=hidden;rotatable=0;points=[[0,0.5],[1,0.5]];portConstraint=eastwest;rounded=0;shadow=0;html=0;" vertex="1" parent="amZI-zdP5LKouah3iNAe-20">
          <mxGeometry y="390" width="160" height="26" as="geometry" />
        </mxCell>
        <mxCell id="amZI-zdP5LKouah3iNAe-40" value="Week5PurchaseCount" style="text;align=left;verticalAlign=top;spacingLeft=4;spacingRight=4;overflow=hidden;rotatable=0;points=[[0,0.5],[1,0.5]];portConstraint=eastwest;rounded=0;shadow=0;html=0;" vertex="1" parent="amZI-zdP5LKouah3iNAe-20">
          <mxGeometry y="416" width="160" height="26" as="geometry" />
        </mxCell>
        <mxCell id="amZI-zdP5LKouah3iNAe-44" value="Week4PurchaseCount" style="text;align=left;verticalAlign=top;spacingLeft=4;spacingRight=4;overflow=hidden;rotatable=0;points=[[0,0.5],[1,0.5]];portConstraint=eastwest;rounded=0;shadow=0;html=0;" vertex="1" parent="amZI-zdP5LKouah3iNAe-20">
          <mxGeometry y="442" width="160" height="26" as="geometry" />
        </mxCell>
        <mxCell id="amZI-zdP5LKouah3iNAe-45" value="Week3PurchaseCount" style="text;align=left;verticalAlign=top;spacingLeft=4;spacingRight=4;overflow=hidden;rotatable=0;points=[[0,0.5],[1,0.5]];portConstraint=eastwest;rounded=0;shadow=0;html=0;" vertex="1" parent="amZI-zdP5LKouah3iNAe-20">
          <mxGeometry y="468" width="160" height="26" as="geometry" />
        </mxCell>
        <mxCell id="amZI-zdP5LKouah3iNAe-46" value="Week2PurchaseCount" style="text;align=left;verticalAlign=top;spacingLeft=4;spacingRight=4;overflow=hidden;rotatable=0;points=[[0,0.5],[1,0.5]];portConstraint=eastwest;rounded=0;shadow=0;html=0;" vertex="1" parent="amZI-zdP5LKouah3iNAe-20">
          <mxGeometry y="494" width="160" height="26" as="geometry" />
        </mxCell>
        <mxCell id="amZI-zdP5LKouah3iNAe-47" value="Week1PurchaseCount" style="text;align=left;verticalAlign=top;spacingLeft=4;spacingRight=4;overflow=hidden;rotatable=0;points=[[0,0.5],[1,0.5]];portConstraint=eastwest;rounded=0;shadow=0;html=0;" vertex="1" parent="amZI-zdP5LKouah3iNAe-20">
          <mxGeometry y="520" width="160" height="26" as="geometry" />
        </mxCell>
        <mxCell id="amZI-zdP5LKouah3iNAe-48" value="ProductInformation" style="text;align=left;verticalAlign=top;spacingLeft=4;spacingRight=4;overflow=hidden;rotatable=0;points=[[0,0.5],[1,0.5]];portConstraint=eastwest;rounded=0;shadow=0;html=0;" vertex="1" parent="amZI-zdP5LKouah3iNAe-20">
          <mxGeometry y="546" width="160" height="26" as="geometry" />
        </mxCell>
        <mxCell id="amZI-zdP5LKouah3iNAe-49" value="Description" style="text;align=left;verticalAlign=top;spacingLeft=4;spacingRight=4;overflow=hidden;rotatable=0;points=[[0,0.5],[1,0.5]];portConstraint=eastwest;rounded=0;shadow=0;html=0;" vertex="1" parent="amZI-zdP5LKouah3iNAe-20">
          <mxGeometry y="572" width="160" height="26" as="geometry" />
        </mxCell>
        <mxCell id="amZI-zdP5LKouah3iNAe-50" value="ProductServingContent" style="text;align=left;verticalAlign=top;spacingLeft=4;spacingRight=4;overflow=hidden;rotatable=0;points=[[0,0.5],[1,0.5]];portConstraint=eastwest;rounded=0;shadow=0;html=0;" vertex="1" parent="amZI-zdP5LKouah3iNAe-20">
          <mxGeometry y="598" width="160" height="26" as="geometry" />
        </mxCell>
        <mxCell id="amZI-zdP5LKouah3iNAe-51" value="ServingType" style="text;align=left;verticalAlign=top;spacingLeft=4;spacingRight=4;overflow=hidden;rotatable=0;points=[[0,0.5],[1,0.5]];portConstraint=eastwest;rounded=0;shadow=0;html=0;" vertex="1" parent="amZI-zdP5LKouah3iNAe-20">
          <mxGeometry y="624" width="160" height="26" as="geometry" />
        </mxCell>
        <mxCell id="amZI-zdP5LKouah3iNAe-52" value="ProductStatus" style="text;align=left;verticalAlign=top;spacingLeft=4;spacingRight=4;overflow=hidden;rotatable=0;points=[[0,0.5],[1,0.5]];portConstraint=eastwest;rounded=0;shadow=0;html=0;" vertex="1" parent="amZI-zdP5LKouah3iNAe-20">
          <mxGeometry y="650" width="160" height="26" as="geometry" />
        </mxCell>
        <mxCell id="amZI-zdP5LKouah3iNAe-53" value="Category" style="text;align=left;verticalAlign=top;spacingLeft=4;spacingRight=4;overflow=hidden;rotatable=0;points=[[0,0.5],[1,0.5]];portConstraint=eastwest;rounded=0;shadow=0;html=0;" vertex="1" parent="amZI-zdP5LKouah3iNAe-20">
          <mxGeometry y="676" width="160" height="26" as="geometry" />
        </mxCell>
        <mxCell id="amZI-zdP5LKouah3iNAe-54" value="RewardPool" style="text;align=left;verticalAlign=top;spacingLeft=4;spacingRight=4;overflow=hidden;rotatable=0;points=[[0,0.5],[1,0.5]];portConstraint=eastwest;rounded=0;shadow=0;html=0;" vertex="1" parent="amZI-zdP5LKouah3iNAe-20">
          <mxGeometry y="702" width="160" height="26" as="geometry" />
        </mxCell>
        <mxCell id="amZI-zdP5LKouah3iNAe-55" value="Review" style="text;align=left;verticalAlign=top;spacingLeft=4;spacingRight=4;overflow=hidden;rotatable=0;points=[[0,0.5],[1,0.5]];portConstraint=eastwest;rounded=0;shadow=0;html=0;" vertex="1" parent="amZI-zdP5LKouah3iNAe-20">
          <mxGeometry y="728" width="160" height="26" as="geometry" />
        </mxCell>
        <mxCell id="amZI-zdP5LKouah3iNAe-56" value="Ingredients" style="text;align=left;verticalAlign=top;spacingLeft=4;spacingRight=4;overflow=hidden;rotatable=0;points=[[0,0.5],[1,0.5]];portConstraint=eastwest;rounded=0;shadow=0;html=0;" vertex="1" parent="amZI-zdP5LKouah3iNAe-20">
          <mxGeometry y="754" width="160" height="26" as="geometry" />
        </mxCell>
        <mxCell id="amZI-zdP5LKouah3iNAe-57" value="OrderDetails" style="text;align=left;verticalAlign=top;spacingLeft=4;spacingRight=4;overflow=hidden;rotatable=0;points=[[0,0.5],[1,0.5]];portConstraint=eastwest;rounded=0;shadow=0;html=0;" vertex="1" parent="amZI-zdP5LKouah3iNAe-20">
          <mxGeometry y="780" width="160" height="26" as="geometry" />
        </mxCell>
        <mxCell id="amZI-zdP5LKouah3iNAe-25" value="" style="line;html=1;strokeWidth=1;align=left;verticalAlign=middle;spacingTop=-1;spacingLeft=3;spacingRight=3;rotatable=0;labelPosition=right;points=[];portConstraint=eastwest;" vertex="1" parent="amZI-zdP5LKouah3iNAe-20">
          <mxGeometry y="806" width="160" height="4" as="geometry" />
        </mxCell>
        <mxCell id="amZI-zdP5LKouah3iNAe-60" value="Get" style="text;align=left;verticalAlign=top;spacingLeft=4;spacingRight=4;overflow=hidden;rotatable=0;points=[[0,0.5],[1,0.5]];portConstraint=eastwest;" vertex="1" parent="amZI-zdP5LKouah3iNAe-20">
          <mxGeometry y="810" width="160" height="20" as="geometry" />
        </mxCell>
        <mxCell id="amZI-zdP5LKouah3iNAe-61" value="Set" style="text;align=left;verticalAlign=top;spacingLeft=4;spacingRight=4;overflow=hidden;rotatable=0;points=[[0,0.5],[1,0.5]];portConstraint=eastwest;" vertex="1" parent="amZI-zdP5LKouah3iNAe-20">
          <mxGeometry y="830" width="160" height="20" as="geometry" />
        </mxCell>
        <mxCell id="amZI-zdP5LKouah3iNAe-72" value="Admin" style="swimlane;fontStyle=1;align=center;verticalAlign=top;childLayout=stackLayout;horizontal=1;startSize=26;horizontalStack=0;resizeParent=1;resizeParentMax=0;resizeLast=0;collapsible=1;marginBottom=0;fontSize=10;" vertex="1" collapsed="1" parent="WIyWlLk6GJQsqaUBKTNV-1">
          <mxGeometry x="-827" y="720" width="70" height="26" as="geometry">
            <mxRectangle x="-827" y="720" width="217" height="86" as="alternateBounds" />
          </mxGeometry>
        </mxCell>
        <mxCell id="amZI-zdP5LKouah3iNAe-73" value="- _RoleManager: RoleManager&lt;IdentityRole&gt;&#xa;" style="text;strokeColor=none;fillColor=none;align=left;verticalAlign=top;spacingLeft=4;spacingRight=4;overflow=hidden;rotatable=0;points=[[0,0.5],[1,0.5]];portConstraint=eastwest;fontSize=10;" vertex="1" parent="amZI-zdP5LKouah3iNAe-72">
          <mxGeometry y="26" width="70" height="26" as="geometry" />
        </mxCell>
        <mxCell id="amZI-zdP5LKouah3iNAe-74" value="" style="line;strokeWidth=1;fillColor=none;align=left;verticalAlign=middle;spacingTop=-1;spacingLeft=3;spacingRight=3;rotatable=0;labelPosition=right;points=[];portConstraint=eastwest;" vertex="1" parent="amZI-zdP5LKouah3iNAe-72">
          <mxGeometry y="52" width="70" height="8" as="geometry" />
        </mxCell>
        <mxCell id="amZI-zdP5LKouah3iNAe-75" value="+ Index(): IActionResult" style="text;strokeColor=none;fillColor=none;align=left;verticalAlign=top;spacingLeft=4;spacingRight=4;overflow=hidden;rotatable=0;points=[[0,0.5],[1,0.5]];portConstraint=eastwest;fontSize=10;" vertex="1" parent="amZI-zdP5LKouah3iNAe-72">
          <mxGeometry y="60" width="70" height="26" as="geometry" />
        </mxCell>
        <mxCell id="amZI-zdP5LKouah3iNAe-77" value="AdminOrder" style="swimlane;fontStyle=1;align=center;verticalAlign=top;childLayout=stackLayout;horizontal=1;startSize=26;horizontalStack=0;resizeParent=1;resizeParentMax=0;resizeLast=0;collapsible=1;marginBottom=0;fontSize=10;" vertex="1" collapsed="1" parent="WIyWlLk6GJQsqaUBKTNV-1">
          <mxGeometry x="-827" y="684" width="90" height="26" as="geometry">
            <mxRectangle x="-720" y="234" width="420" height="398" as="alternateBounds" />
          </mxGeometry>
        </mxCell>
        <mxCell id="amZI-zdP5LKouah3iNAe-78" value="- _context: AppDbContext" style="text;strokeColor=none;fillColor=none;align=left;verticalAlign=top;spacingLeft=4;spacingRight=4;overflow=hidden;rotatable=0;points=[[0,0.5],[1,0.5]];portConstraint=eastwest;fontSize=10;" vertex="1" parent="amZI-zdP5LKouah3iNAe-77">
          <mxGeometry y="26" width="90" height="26" as="geometry" />
        </mxCell>
        <mxCell id="amZI-zdP5LKouah3iNAe-81" value="- _ordersContext: List&lt;Order&gt;" style="text;strokeColor=none;fillColor=none;align=left;verticalAlign=top;spacingLeft=4;spacingRight=4;overflow=hidden;rotatable=0;points=[[0,0.5],[1,0.5]];portConstraint=eastwest;fontSize=10;" vertex="1" parent="amZI-zdP5LKouah3iNAe-77">
          <mxGeometry y="52" width="90" height="26" as="geometry" />
        </mxCell>
        <mxCell id="amZI-zdP5LKouah3iNAe-241" value="- ITEMS_PER_PAGE: int" style="text;strokeColor=none;fillColor=none;align=left;verticalAlign=top;spacingLeft=4;spacingRight=4;overflow=hidden;rotatable=0;points=[[0,0.5],[1,0.5]];portConstraint=eastwest;fontSize=10;" vertex="1" parent="amZI-zdP5LKouah3iNAe-77">
          <mxGeometry y="78" width="90" height="26" as="geometry" />
        </mxCell>
        <mxCell id="amZI-zdP5LKouah3iNAe-242" value="- _currentRange: int" style="text;strokeColor=none;fillColor=none;align=left;verticalAlign=top;spacingLeft=4;spacingRight=4;overflow=hidden;rotatable=0;points=[[0,0.5],[1,0.5]];portConstraint=eastwest;fontSize=10;" vertex="1" parent="amZI-zdP5LKouah3iNAe-77">
          <mxGeometry y="104" width="90" height="26" as="geometry" />
        </mxCell>
        <mxCell id="amZI-zdP5LKouah3iNAe-79" value="" style="line;strokeWidth=1;fillColor=none;align=left;verticalAlign=middle;spacingTop=-1;spacingLeft=3;spacingRight=3;rotatable=0;labelPosition=right;points=[];portConstraint=eastwest;" vertex="1" parent="amZI-zdP5LKouah3iNAe-77">
          <mxGeometry y="130" width="90" height="8" as="geometry" />
        </mxCell>
        <mxCell id="amZI-zdP5LKouah3iNAe-80" value="+ PerformOrderFilter(string, string): void" style="text;strokeColor=none;fillColor=none;align=left;verticalAlign=top;spacingLeft=4;spacingRight=4;overflow=hidden;rotatable=0;points=[[0,0.5],[1,0.5]];portConstraint=eastwest;fontSize=10;" vertex="1" parent="amZI-zdP5LKouah3iNAe-77">
          <mxGeometry y="138" width="90" height="26" as="geometry" />
        </mxCell>
        <mxCell id="amZI-zdP5LKouah3iNAe-82" value="+ OderNextTableData(int): Task&lt;IActionResult&gt;" style="text;strokeColor=none;fillColor=none;align=left;verticalAlign=top;spacingLeft=4;spacingRight=4;overflow=hidden;rotatable=0;points=[[0,0.5],[1,0.5]];portConstraint=eastwest;fontSize=10;" vertex="1" parent="amZI-zdP5LKouah3iNAe-77">
          <mxGeometry y="164" width="90" height="26" as="geometry" />
        </mxCell>
        <mxCell id="amZI-zdP5LKouah3iNAe-83" value="+ OrderSoftTableData(string): Task&lt;IActionResult&gt;" style="text;strokeColor=none;fillColor=none;align=left;verticalAlign=top;spacingLeft=4;spacingRight=4;overflow=hidden;rotatable=0;points=[[0,0.5],[1,0.5]];portConstraint=eastwest;fontSize=10;" vertex="1" parent="amZI-zdP5LKouah3iNAe-77">
          <mxGeometry y="190" width="90" height="26" as="geometry" />
        </mxCell>
        <mxCell id="amZI-zdP5LKouah3iNAe-243" value="+ OrderFilterTableData(string, string): Task&lt;IActionResult&gt;" style="text;strokeColor=none;fillColor=none;align=left;verticalAlign=top;spacingLeft=4;spacingRight=4;overflow=hidden;rotatable=0;points=[[0,0.5],[1,0.5]];portConstraint=eastwest;fontSize=10;" vertex="1" parent="amZI-zdP5LKouah3iNAe-77">
          <mxGeometry y="216" width="90" height="26" as="geometry" />
        </mxCell>
        <mxCell id="amZI-zdP5LKouah3iNAe-244" value="+ OrderRemoveFilterTableData([FromBody] List&lt;AdminFilterModel&gt;): Task&lt;IActionResult&gt;" style="text;strokeColor=none;fillColor=none;align=left;verticalAlign=top;spacingLeft=4;spacingRight=4;overflow=hidden;rotatable=0;points=[[0,0.5],[1,0.5]];portConstraint=eastwest;fontSize=10;" vertex="1" parent="amZI-zdP5LKouah3iNAe-77">
          <mxGeometry y="242" width="90" height="26" as="geometry" />
        </mxCell>
        <mxCell id="amZI-zdP5LKouah3iNAe-84" value="+ RefreshOrderTableIndex(): IActionResult" style="text;strokeColor=none;fillColor=none;align=left;verticalAlign=top;spacingLeft=4;spacingRight=4;overflow=hidden;rotatable=0;points=[[0,0.5],[1,0.5]];portConstraint=eastwest;fontSize=10;" vertex="1" parent="amZI-zdP5LKouah3iNAe-77">
          <mxGeometry y="268" width="90" height="26" as="geometry" />
        </mxCell>
        <mxCell id="amZI-zdP5LKouah3iNAe-85" value="+ UpdatePagination(): IActionResult" style="text;strokeColor=none;fillColor=none;align=left;verticalAlign=top;spacingLeft=4;spacingRight=4;overflow=hidden;rotatable=0;points=[[0,0.5],[1,0.5]];portConstraint=eastwest;fontSize=10;" vertex="1" parent="amZI-zdP5LKouah3iNAe-77">
          <mxGeometry y="294" width="90" height="26" as="geometry" />
        </mxCell>
        <mxCell id="amZI-zdP5LKouah3iNAe-86" value="+ Index(): Task&lt;IActionResult&gt;" style="text;strokeColor=none;fillColor=none;align=left;verticalAlign=top;spacingLeft=4;spacingRight=4;overflow=hidden;rotatable=0;points=[[0,0.5],[1,0.5]];portConstraint=eastwest;fontSize=10;" vertex="1" parent="amZI-zdP5LKouah3iNAe-77">
          <mxGeometry y="320" width="90" height="26" as="geometry" />
        </mxCell>
        <mxCell id="amZI-zdP5LKouah3iNAe-87" value="+ Details(string): Task&lt;IActionResult&gt;" style="text;strokeColor=none;fillColor=none;align=left;verticalAlign=top;spacingLeft=4;spacingRight=4;overflow=hidden;rotatable=0;points=[[0,0.5],[1,0.5]];portConstraint=eastwest;fontSize=10;" vertex="1" parent="amZI-zdP5LKouah3iNAe-77">
          <mxGeometry y="346" width="90" height="26" as="geometry" />
        </mxCell>
        <mxCell id="amZI-zdP5LKouah3iNAe-88" value="+ EditStatus([Bind(&quot;orderID,status&quot;)]string, string): Task&lt;IActionResult&gt;" style="text;strokeColor=none;fillColor=none;align=left;verticalAlign=top;spacingLeft=4;spacingRight=4;overflow=hidden;rotatable=0;points=[[0,0.5],[1,0.5]];portConstraint=eastwest;fontSize=10;" vertex="1" parent="amZI-zdP5LKouah3iNAe-77">
          <mxGeometry y="372" width="90" height="26" as="geometry" />
        </mxCell>
        <mxCell id="amZI-zdP5LKouah3iNAe-90" value="AdminProductCategories" style="swimlane;fontStyle=1;align=center;verticalAlign=top;childLayout=stackLayout;horizontal=1;startSize=26;horizontalStack=0;resizeParent=1;resizeParentMax=0;resizeLast=0;collapsible=1;marginBottom=0;fontSize=10;" vertex="1" collapsed="1" parent="WIyWlLk6GJQsqaUBKTNV-1">
          <mxGeometry x="-827" y="800" width="150" height="26" as="geometry">
            <mxRectangle x="-827" y="800" width="360" height="268" as="alternateBounds" />
          </mxGeometry>
        </mxCell>
        <mxCell id="amZI-zdP5LKouah3iNAe-91" value="- _context: AppDbContext" style="text;strokeColor=none;fillColor=none;align=left;verticalAlign=top;spacingLeft=4;spacingRight=4;overflow=hidden;rotatable=0;points=[[0,0.5],[1,0.5]];portConstraint=eastwest;fontSize=10;" vertex="1" parent="amZI-zdP5LKouah3iNAe-90">
          <mxGeometry y="26" width="150" height="26" as="geometry" />
        </mxCell>
        <mxCell id="amZI-zdP5LKouah3iNAe-92" value="" style="line;strokeWidth=1;fillColor=none;align=left;verticalAlign=middle;spacingTop=-1;spacingLeft=3;spacingRight=3;rotatable=0;labelPosition=right;points=[];portConstraint=eastwest;" vertex="1" parent="amZI-zdP5LKouah3iNAe-90">
          <mxGeometry y="52" width="150" height="8" as="geometry" />
        </mxCell>
        <mxCell id="amZI-zdP5LKouah3iNAe-93" value="+Index(): Task&lt;IActionResult&gt;&#xa;" style="text;strokeColor=none;fillColor=none;align=left;verticalAlign=top;spacingLeft=4;spacingRight=4;overflow=hidden;rotatable=0;points=[[0,0.5],[1,0.5]];portConstraint=eastwest;fontSize=10;" vertex="1" parent="amZI-zdP5LKouah3iNAe-90">
          <mxGeometry y="60" width="150" height="26" as="geometry" />
        </mxCell>
        <mxCell id="amZI-zdP5LKouah3iNAe-96" value="+Create(): IActionResult" style="text;strokeColor=none;fillColor=none;align=left;verticalAlign=top;spacingLeft=4;spacingRight=4;overflow=hidden;rotatable=0;points=[[0,0.5],[1,0.5]];portConstraint=eastwest;fontSize=10;" vertex="1" parent="amZI-zdP5LKouah3iNAe-90">
          <mxGeometry y="86" width="150" height="26" as="geometry" />
        </mxCell>
        <mxCell id="amZI-zdP5LKouah3iNAe-245" value="+Create([Bind(&quot;CategoryID,CategoryName&quot;)] Category): Task&lt;IActionResult&gt;" style="text;strokeColor=none;fillColor=none;align=left;verticalAlign=top;spacingLeft=4;spacingRight=4;overflow=hidden;rotatable=0;points=[[0,0.5],[1,0.5]];portConstraint=eastwest;fontSize=10;" vertex="1" parent="amZI-zdP5LKouah3iNAe-90">
          <mxGeometry y="112" width="150" height="26" as="geometry" />
        </mxCell>
        <mxCell id="amZI-zdP5LKouah3iNAe-97" value="+Edit(int?): Task&lt;IActionResult&gt;" style="text;strokeColor=none;fillColor=none;align=left;verticalAlign=top;spacingLeft=4;spacingRight=4;overflow=hidden;rotatable=0;points=[[0,0.5],[1,0.5]];portConstraint=eastwest;fontSize=10;" vertex="1" parent="amZI-zdP5LKouah3iNAe-90">
          <mxGeometry y="138" width="150" height="26" as="geometry" />
        </mxCell>
        <mxCell id="amZI-zdP5LKouah3iNAe-246" value="+Edit(int, [Bind(&quot;CategoryID,CategoryName&quot;)] Category): Task&lt;IActionResult&gt;" style="text;strokeColor=none;fillColor=none;align=left;verticalAlign=top;spacingLeft=4;spacingRight=4;overflow=hidden;rotatable=0;points=[[0,0.5],[1,0.5]];portConstraint=eastwest;fontSize=10;" vertex="1" parent="amZI-zdP5LKouah3iNAe-90">
          <mxGeometry y="164" width="150" height="26" as="geometry" />
        </mxCell>
        <mxCell id="amZI-zdP5LKouah3iNAe-98" value="+Delete(int?): Task&lt;IActionResult&gt;" style="text;strokeColor=none;fillColor=none;align=left;verticalAlign=top;spacingLeft=4;spacingRight=4;overflow=hidden;rotatable=0;points=[[0,0.5],[1,0.5]];portConstraint=eastwest;fontSize=10;" vertex="1" parent="amZI-zdP5LKouah3iNAe-90">
          <mxGeometry y="190" width="150" height="26" as="geometry" />
        </mxCell>
        <mxCell id="amZI-zdP5LKouah3iNAe-99" value="+DeleteConfirmed(int): Task&lt;IActionResult&gt;" style="text;strokeColor=none;fillColor=none;align=left;verticalAlign=top;spacingLeft=4;spacingRight=4;overflow=hidden;rotatable=0;points=[[0,0.5],[1,0.5]];portConstraint=eastwest;fontSize=10;" vertex="1" parent="amZI-zdP5LKouah3iNAe-90">
          <mxGeometry y="216" width="150" height="26" as="geometry" />
        </mxCell>
        <mxCell id="amZI-zdP5LKouah3iNAe-100" value="+CategoryExists(int): bool" style="text;strokeColor=none;fillColor=none;align=left;verticalAlign=top;spacingLeft=4;spacingRight=4;overflow=hidden;rotatable=0;points=[[0,0.5],[1,0.5]];portConstraint=eastwest;fontSize=10;" vertex="1" parent="amZI-zdP5LKouah3iNAe-90">
          <mxGeometry y="242" width="150" height="26" as="geometry" />
        </mxCell>
        <mxCell id="amZI-zdP5LKouah3iNAe-105" value="AdminProduct" style="swimlane;fontStyle=1;align=center;verticalAlign=top;childLayout=stackLayout;horizontal=1;startSize=26;horizontalStack=0;resizeParent=1;resizeParentMax=0;resizeLast=0;collapsible=1;marginBottom=0;fontSize=10;" vertex="1" collapsed="1" parent="WIyWlLk6GJQsqaUBKTNV-1">
          <mxGeometry x="-827" y="840" width="100" height="26" as="geometry">
            <mxRectangle x="-650" y="200" width="530" height="798" as="alternateBounds" />
          </mxGeometry>
        </mxCell>
        <mxCell id="amZI-zdP5LKouah3iNAe-106" value="- _context: AppDbContext" style="text;strokeColor=none;fillColor=none;align=left;verticalAlign=top;spacingLeft=4;spacingRight=4;overflow=hidden;rotatable=0;points=[[0,0.5],[1,0.5]];portConstraint=eastwest;fontSize=10;" vertex="1" parent="amZI-zdP5LKouah3iNAe-105">
          <mxGeometry y="26" width="100" height="26" as="geometry" />
        </mxCell>
        <mxCell id="amZI-zdP5LKouah3iNAe-109" value="- _productsContext: List&lt;Product&gt;" style="text;strokeColor=none;fillColor=none;align=left;verticalAlign=top;spacingLeft=4;spacingRight=4;overflow=hidden;rotatable=0;points=[[0,0.5],[1,0.5]];portConstraint=eastwest;fontSize=10;" vertex="1" parent="amZI-zdP5LKouah3iNAe-105">
          <mxGeometry y="52" width="100" height="26" as="geometry" />
        </mxCell>
        <mxCell id="amZI-zdP5LKouah3iNAe-110" value="- ITEMS_PER_PAGE: int" style="text;strokeColor=none;fillColor=none;align=left;verticalAlign=top;spacingLeft=4;spacingRight=4;overflow=hidden;rotatable=0;points=[[0,0.5],[1,0.5]];portConstraint=eastwest;fontSize=10;" vertex="1" parent="amZI-zdP5LKouah3iNAe-105">
          <mxGeometry y="78" width="100" height="26" as="geometry" />
        </mxCell>
        <mxCell id="amZI-zdP5LKouah3iNAe-111" value="- _currentRange: int" style="text;strokeColor=none;fillColor=none;align=left;verticalAlign=top;spacingLeft=4;spacingRight=4;overflow=hidden;rotatable=0;points=[[0,0.5],[1,0.5]];portConstraint=eastwest;fontSize=10;" vertex="1" parent="amZI-zdP5LKouah3iNAe-105">
          <mxGeometry y="104" width="100" height="26" as="geometry" />
        </mxCell>
        <mxCell id="amZI-zdP5LKouah3iNAe-112" value="+ _HostingEnvironment: IHostingEnvironment&#xa;" style="text;strokeColor=none;fillColor=none;align=left;verticalAlign=top;spacingLeft=4;spacingRight=4;overflow=hidden;rotatable=0;points=[[0,0.5],[1,0.5]];portConstraint=eastwest;fontSize=10;" vertex="1" parent="amZI-zdP5LKouah3iNAe-105">
          <mxGeometry y="130" width="100" height="26" as="geometry" />
        </mxCell>
        <mxCell id="amZI-zdP5LKouah3iNAe-107" value="" style="line;strokeWidth=1;fillColor=none;align=left;verticalAlign=middle;spacingTop=-1;spacingLeft=3;spacingRight=3;rotatable=0;labelPosition=right;points=[];portConstraint=eastwest;" vertex="1" parent="amZI-zdP5LKouah3iNAe-105">
          <mxGeometry y="156" width="100" height="8" as="geometry" />
        </mxCell>
        <mxCell id="amZI-zdP5LKouah3iNAe-108" value="+ IsProductExist(string, string): IActionResult" style="text;strokeColor=none;fillColor=none;align=left;verticalAlign=top;spacingLeft=4;spacingRight=4;overflow=hidden;rotatable=0;points=[[0,0.5],[1,0.5]];portConstraint=eastwest;fontSize=10;" vertex="1" parent="amZI-zdP5LKouah3iNAe-105">
          <mxGeometry y="164" width="100" height="26" as="geometry" />
        </mxCell>
        <mxCell id="amZI-zdP5LKouah3iNAe-113" value="+ GetProductServingType(): IActionResult" style="text;strokeColor=none;fillColor=none;align=left;verticalAlign=top;spacingLeft=4;spacingRight=4;overflow=hidden;rotatable=0;points=[[0,0.5],[1,0.5]];portConstraint=eastwest;fontSize=10;" vertex="1" parent="amZI-zdP5LKouah3iNAe-105">
          <mxGeometry y="190" width="100" height="26" as="geometry" />
        </mxCell>
        <mxCell id="amZI-zdP5LKouah3iNAe-114" value="+ GetProductStatus(): IActionResult" style="text;strokeColor=none;fillColor=none;align=left;verticalAlign=top;spacingLeft=4;spacingRight=4;overflow=hidden;rotatable=0;points=[[0,0.5],[1,0.5]];portConstraint=eastwest;fontSize=10;" vertex="1" parent="amZI-zdP5LKouah3iNAe-105">
          <mxGeometry y="216" width="100" height="26" as="geometry" />
        </mxCell>
        <mxCell id="amZI-zdP5LKouah3iNAe-115" value="+ GetProductCategory(): IActionResult" style="text;strokeColor=none;fillColor=none;align=left;verticalAlign=top;spacingLeft=4;spacingRight=4;overflow=hidden;rotatable=0;points=[[0,0.5],[1,0.5]];portConstraint=eastwest;fontSize=10;" vertex="1" parent="amZI-zdP5LKouah3iNAe-105">
          <mxGeometry y="242" width="100" height="26" as="geometry" />
        </mxCell>
        <mxCell id="amZI-zdP5LKouah3iNAe-116" value="+ UpdatePagination(): IActionResult" style="text;strokeColor=none;fillColor=none;align=left;verticalAlign=top;spacingLeft=4;spacingRight=4;overflow=hidden;rotatable=0;points=[[0,0.5],[1,0.5]];portConstraint=eastwest;fontSize=10;" vertex="1" parent="amZI-zdP5LKouah3iNAe-105">
          <mxGeometry y="268" width="100" height="26" as="geometry" />
        </mxCell>
        <mxCell id="amZI-zdP5LKouah3iNAe-117" value="+ RefreshProductTableIndex(): IActionResult" style="text;strokeColor=none;fillColor=none;align=left;verticalAlign=top;spacingLeft=4;spacingRight=4;overflow=hidden;rotatable=0;points=[[0,0.5],[1,0.5]];portConstraint=eastwest;fontSize=10;" vertex="1" parent="amZI-zdP5LKouah3iNAe-105">
          <mxGeometry y="294" width="100" height="26" as="geometry" />
        </mxCell>
        <mxCell id="amZI-zdP5LKouah3iNAe-118" value="+ PerformProductFilter(): void" style="text;strokeColor=none;fillColor=none;align=left;verticalAlign=top;spacingLeft=4;spacingRight=4;overflow=hidden;rotatable=0;points=[[0,0.5],[1,0.5]];portConstraint=eastwest;fontSize=10;" vertex="1" parent="amZI-zdP5LKouah3iNAe-105">
          <mxGeometry y="320" width="100" height="26" as="geometry" />
        </mxCell>
        <mxCell id="amZI-zdP5LKouah3iNAe-119" value="+ Index(): Task&lt;IActionResult&gt;" style="text;strokeColor=none;fillColor=none;align=left;verticalAlign=top;spacingLeft=4;spacingRight=4;overflow=hidden;rotatable=0;points=[[0,0.5],[1,0.5]];portConstraint=eastwest;fontSize=10;" vertex="1" parent="amZI-zdP5LKouah3iNAe-105">
          <mxGeometry y="346" width="100" height="26" as="geometry" />
        </mxCell>
        <mxCell id="amZI-zdP5LKouah3iNAe-120" value="+ ProductSortTableData(string): Task&lt;IActionResult&gt;" style="text;strokeColor=none;fillColor=none;align=left;verticalAlign=top;spacingLeft=4;spacingRight=4;overflow=hidden;rotatable=0;points=[[0,0.5],[1,0.5]];portConstraint=eastwest;fontSize=10;" vertex="1" parent="amZI-zdP5LKouah3iNAe-105">
          <mxGeometry y="372" width="100" height="26" as="geometry" />
        </mxCell>
        <mxCell id="amZI-zdP5LKouah3iNAe-121" value="+ ProductNextTableData(int): Task&lt;IActionResult&gt;" style="text;strokeColor=none;fillColor=none;align=left;verticalAlign=top;spacingLeft=4;spacingRight=4;overflow=hidden;rotatable=0;points=[[0,0.5],[1,0.5]];portConstraint=eastwest;fontSize=10;" vertex="1" parent="amZI-zdP5LKouah3iNAe-105">
          <mxGeometry y="398" width="100" height="26" as="geometry" />
        </mxCell>
        <mxCell id="amZI-zdP5LKouah3iNAe-247" value="+ ProductFilterData(string, string): Task&lt;IActionResult&gt;" style="text;strokeColor=none;fillColor=none;align=left;verticalAlign=top;spacingLeft=4;spacingRight=4;overflow=hidden;rotatable=0;points=[[0,0.5],[1,0.5]];portConstraint=eastwest;fontSize=10;" vertex="1" parent="amZI-zdP5LKouah3iNAe-105">
          <mxGeometry y="424" width="100" height="26" as="geometry" />
        </mxCell>
        <mxCell id="amZI-zdP5LKouah3iNAe-248" value="+ ProductRemoveFilterData([FromBody] List&lt;AdminFilterModel&gt;): Task&lt;IActionResult&gt;" style="text;strokeColor=none;fillColor=none;align=left;verticalAlign=top;spacingLeft=4;spacingRight=4;overflow=hidden;rotatable=0;points=[[0,0.5],[1,0.5]];portConstraint=eastwest;fontSize=10;" vertex="1" parent="amZI-zdP5LKouah3iNAe-105">
          <mxGeometry y="450" width="100" height="26" as="geometry" />
        </mxCell>
        <mxCell id="amZI-zdP5LKouah3iNAe-122" value="+ Details(int?): Task&lt;IActionResult&gt;" style="text;strokeColor=none;fillColor=none;align=left;verticalAlign=top;spacingLeft=4;spacingRight=4;overflow=hidden;rotatable=0;points=[[0,0.5],[1,0.5]];portConstraint=eastwest;fontSize=10;" vertex="1" parent="amZI-zdP5LKouah3iNAe-105">
          <mxGeometry y="476" width="100" height="26" as="geometry" />
        </mxCell>
        <mxCell id="amZI-zdP5LKouah3iNAe-123" value="+ Create(): IActionResult" style="text;strokeColor=none;fillColor=none;align=left;verticalAlign=top;spacingLeft=4;spacingRight=4;overflow=hidden;rotatable=0;points=[[0,0.5],[1,0.5]];portConstraint=eastwest;fontSize=10;" vertex="1" parent="amZI-zdP5LKouah3iNAe-105">
          <mxGeometry y="502" width="100" height="26" as="geometry" />
        </mxCell>
        <mxCell id="amZI-zdP5LKouah3iNAe-249" value="+ Create([Bind(&quot;ProductID,ProductPrice,ProductStock,ProductName,ProductDiscount, &#xa;&#xa;                         ProductInformation,Description,ProductServingContent,ProductServingTypeID, &#xa;&#xa;                         ProductStatusID,CategoryID,Image,SaleStartDateTime,&#xa;                         SaleEndDateTime&quot;)] AdminProductCreateViewModel): Task&lt;IActionResult&gt;" style="text;strokeColor=none;fillColor=none;align=left;verticalAlign=top;spacingLeft=4;spacingRight=4;overflow=hidden;rotatable=0;points=[[0,0.5],[1,0.5]];portConstraint=eastwest;fontSize=10;" vertex="1" parent="amZI-zdP5LKouah3iNAe-105">
          <mxGeometry y="528" width="100" height="82" as="geometry" />
        </mxCell>
        <mxCell id="amZI-zdP5LKouah3iNAe-124" value="+ ProcessUploadedFile(IFormFile): string" style="text;strokeColor=none;fillColor=none;align=left;verticalAlign=top;spacingLeft=4;spacingRight=4;overflow=hidden;rotatable=0;points=[[0,0.5],[1,0.5]];portConstraint=eastwest;fontSize=10;" vertex="1" parent="amZI-zdP5LKouah3iNAe-105">
          <mxGeometry y="610" width="100" height="26" as="geometry" />
        </mxCell>
        <mxCell id="amZI-zdP5LKouah3iNAe-125" value="+ Edit(int?): IActionResult" style="text;strokeColor=none;fillColor=none;align=left;verticalAlign=top;spacingLeft=4;spacingRight=4;overflow=hidden;rotatable=0;points=[[0,0.5],[1,0.5]];portConstraint=eastwest;fontSize=10;" vertex="1" parent="amZI-zdP5LKouah3iNAe-105">
          <mxGeometry y="636" width="100" height="26" as="geometry" />
        </mxCell>
        <mxCell id="amZI-zdP5LKouah3iNAe-126" value="+ Delete(int, [Bind(&quot;ProductID,ProductPrice,ProductStock,ProductName,ProductDiscount,&#xa;                               ProductInformation,Description,ProductServingContent,ProductServingTypeID,&#xa;                               ProductStatusID,CategoryID,ProductIncrement,Image,ImageUrl,SaleStartDateTime,&#xa;                               SaleEndDateTime&quot;)] AdminProductEditViewModel): Task&lt;IActionResult&gt;" style="text;strokeColor=none;fillColor=none;align=left;verticalAlign=top;spacingLeft=4;spacingRight=4;overflow=hidden;rotatable=0;points=[[0,0.5],[1,0.5]];portConstraint=eastwest;fontSize=10;" vertex="1" parent="amZI-zdP5LKouah3iNAe-105">
          <mxGeometry y="662" width="100" height="58" as="geometry" />
        </mxCell>
        <mxCell id="amZI-zdP5LKouah3iNAe-127" value="+ Delete(int?): Task&lt;IActionResult&gt;" style="text;strokeColor=none;fillColor=none;align=left;verticalAlign=top;spacingLeft=4;spacingRight=4;overflow=hidden;rotatable=0;points=[[0,0.5],[1,0.5]];portConstraint=eastwest;fontSize=10;" vertex="1" parent="amZI-zdP5LKouah3iNAe-105">
          <mxGeometry y="720" width="100" height="26" as="geometry" />
        </mxCell>
        <mxCell id="amZI-zdP5LKouah3iNAe-250" value="+ DeleteConfirmed(int): Task&lt;IActionResult&gt;" style="text;strokeColor=none;fillColor=none;align=left;verticalAlign=top;spacingLeft=4;spacingRight=4;overflow=hidden;rotatable=0;points=[[0,0.5],[1,0.5]];portConstraint=eastwest;fontSize=10;" vertex="1" parent="amZI-zdP5LKouah3iNAe-105">
          <mxGeometry y="746" width="100" height="26" as="geometry" />
        </mxCell>
        <mxCell id="amZI-zdP5LKouah3iNAe-128" value="+ ProductExists(int): bool" style="text;strokeColor=none;fillColor=none;align=left;verticalAlign=top;spacingLeft=4;spacingRight=4;overflow=hidden;rotatable=0;points=[[0,0.5],[1,0.5]];portConstraint=eastwest;fontSize=10;" vertex="1" parent="amZI-zdP5LKouah3iNAe-105">
          <mxGeometry y="772" width="100" height="26" as="geometry" />
        </mxCell>
        <mxCell id="amZI-zdP5LKouah3iNAe-129" value="AdminProductServingTypes" style="swimlane;fontStyle=1;align=center;verticalAlign=top;childLayout=stackLayout;horizontal=1;startSize=26;horizontalStack=0;resizeParent=1;resizeParentMax=0;resizeLast=0;collapsible=1;marginBottom=0;fontSize=10;" vertex="1" collapsed="1" parent="WIyWlLk6GJQsqaUBKTNV-1">
          <mxGeometry x="-827" y="880" width="160" height="26" as="geometry">
            <mxRectangle x="-680" y="240" width="490" height="190" as="alternateBounds" />
          </mxGeometry>
        </mxCell>
        <mxCell id="amZI-zdP5LKouah3iNAe-133" value="- _context: AppDbContext" style="text;strokeColor=none;fillColor=none;align=left;verticalAlign=top;spacingLeft=4;spacingRight=4;overflow=hidden;rotatable=0;points=[[0,0.5],[1,0.5]];portConstraint=eastwest;fontSize=10;" vertex="1" parent="amZI-zdP5LKouah3iNAe-129">
          <mxGeometry y="26" width="160" height="26" as="geometry" />
        </mxCell>
        <mxCell id="amZI-zdP5LKouah3iNAe-131" value="" style="line;strokeWidth=1;fillColor=none;align=left;verticalAlign=middle;spacingTop=-1;spacingLeft=3;spacingRight=3;rotatable=0;labelPosition=right;points=[];portConstraint=eastwest;" vertex="1" parent="amZI-zdP5LKouah3iNAe-129">
          <mxGeometry y="52" width="160" height="8" as="geometry" />
        </mxCell>
        <mxCell id="amZI-zdP5LKouah3iNAe-132" value="+ Index(): Task&lt;IActionResult&gt;" style="text;strokeColor=none;fillColor=none;align=left;verticalAlign=top;spacingLeft=4;spacingRight=4;overflow=hidden;rotatable=0;points=[[0,0.5],[1,0.5]];portConstraint=eastwest;fontSize=10;" vertex="1" parent="amZI-zdP5LKouah3iNAe-129">
          <mxGeometry y="60" width="160" height="26" as="geometry" />
        </mxCell>
        <mxCell id="amZI-zdP5LKouah3iNAe-135" value="+ Create(): IActionResult" style="text;strokeColor=none;fillColor=none;align=left;verticalAlign=top;spacingLeft=4;spacingRight=4;overflow=hidden;rotatable=0;points=[[0,0.5],[1,0.5]];portConstraint=eastwest;fontSize=10;" vertex="1" parent="amZI-zdP5LKouah3iNAe-129">
          <mxGeometry y="86" width="160" height="26" as="geometry" />
        </mxCell>
        <mxCell id="amZI-zdP5LKouah3iNAe-136" value="+ Edit(int?): Task&lt;IActionResult&gt;" style="text;strokeColor=none;fillColor=none;align=left;verticalAlign=top;spacingLeft=4;spacingRight=4;overflow=hidden;rotatable=0;points=[[0,0.5],[1,0.5]];portConstraint=eastwest;fontSize=10;" vertex="1" parent="amZI-zdP5LKouah3iNAe-129">
          <mxGeometry y="112" width="160" height="26" as="geometry" />
        </mxCell>
        <mxCell id="amZI-zdP5LKouah3iNAe-253" value="+ Edit(int, Edit(int id, [Bind(&quot;ProductServingTypeID,ServingType&quot;)]ProductServingType): Task&lt;IActionResult&gt;" style="text;strokeColor=none;fillColor=none;align=left;verticalAlign=top;spacingLeft=4;spacingRight=4;overflow=hidden;rotatable=0;points=[[0,0.5],[1,0.5]];portConstraint=eastwest;fontSize=10;" vertex="1" parent="amZI-zdP5LKouah3iNAe-129">
          <mxGeometry y="138" width="160" height="26" as="geometry" />
        </mxCell>
        <mxCell id="amZI-zdP5LKouah3iNAe-137" value="+ ProductServingTypeExists(int): bool" style="text;strokeColor=none;fillColor=none;align=left;verticalAlign=top;spacingLeft=4;spacingRight=4;overflow=hidden;rotatable=0;points=[[0,0.5],[1,0.5]];portConstraint=eastwest;fontSize=10;" vertex="1" parent="amZI-zdP5LKouah3iNAe-129">
          <mxGeometry y="164" width="160" height="26" as="geometry" />
        </mxCell>
        <mxCell id="amZI-zdP5LKouah3iNAe-138" value="AdminProductStatus" style="swimlane;fontStyle=1;align=center;verticalAlign=top;childLayout=stackLayout;horizontal=1;startSize=26;horizontalStack=0;resizeParent=1;resizeParentMax=0;resizeLast=0;collapsible=1;marginBottom=0;fontSize=10;" vertex="1" collapsed="1" parent="WIyWlLk6GJQsqaUBKTNV-1">
          <mxGeometry x="-827" y="920" width="120" height="26" as="geometry">
            <mxRectangle x="-827" y="920" width="160" height="86" as="alternateBounds" />
          </mxGeometry>
        </mxCell>
        <mxCell id="amZI-zdP5LKouah3iNAe-143" value="- _context: AppDbContext" style="text;strokeColor=none;fillColor=none;align=left;verticalAlign=top;spacingLeft=4;spacingRight=4;overflow=hidden;rotatable=0;points=[[0,0.5],[1,0.5]];portConstraint=eastwest;fontSize=10;" vertex="1" parent="amZI-zdP5LKouah3iNAe-138">
          <mxGeometry y="26" width="120" height="26" as="geometry" />
        </mxCell>
        <mxCell id="amZI-zdP5LKouah3iNAe-140" value="" style="line;strokeWidth=1;fillColor=none;align=left;verticalAlign=middle;spacingTop=-1;spacingLeft=3;spacingRight=3;rotatable=0;labelPosition=right;points=[];portConstraint=eastwest;" vertex="1" parent="amZI-zdP5LKouah3iNAe-138">
          <mxGeometry y="52" width="120" height="8" as="geometry" />
        </mxCell>
        <mxCell id="amZI-zdP5LKouah3iNAe-141" value="+ Index(): Task&lt;IActionResult&gt;" style="text;strokeColor=none;fillColor=none;align=left;verticalAlign=top;spacingLeft=4;spacingRight=4;overflow=hidden;rotatable=0;points=[[0,0.5],[1,0.5]];portConstraint=eastwest;fontSize=10;" vertex="1" parent="amZI-zdP5LKouah3iNAe-138">
          <mxGeometry y="60" width="120" height="26" as="geometry" />
        </mxCell>
        <mxCell id="amZI-zdP5LKouah3iNAe-145" value="AdminRecipes" style="swimlane;fontStyle=1;align=center;verticalAlign=top;childLayout=stackLayout;horizontal=1;startSize=26;horizontalStack=0;resizeParent=1;resizeParentMax=0;resizeLast=0;collapsible=1;marginBottom=0;fontSize=10;" vertex="1" collapsed="1" parent="WIyWlLk6GJQsqaUBKTNV-1">
          <mxGeometry x="-827" y="960" width="100" height="26" as="geometry">
            <mxRectangle x="-720" y="240" width="330" height="328" as="alternateBounds" />
          </mxGeometry>
        </mxCell>
        <mxCell id="amZI-zdP5LKouah3iNAe-149" value="- _context: AppDbContext" style="text;strokeColor=none;fillColor=none;align=left;verticalAlign=top;spacingLeft=4;spacingRight=4;overflow=hidden;rotatable=0;points=[[0,0.5],[1,0.5]];portConstraint=eastwest;fontSize=10;" vertex="1" parent="amZI-zdP5LKouah3iNAe-145">
          <mxGeometry y="26" width="100" height="26" as="geometry" />
        </mxCell>
        <mxCell id="amZI-zdP5LKouah3iNAe-147" value="" style="line;strokeWidth=1;fillColor=none;align=left;verticalAlign=middle;spacingTop=-1;spacingLeft=3;spacingRight=3;rotatable=0;labelPosition=right;points=[];portConstraint=eastwest;" vertex="1" parent="amZI-zdP5LKouah3iNAe-145">
          <mxGeometry y="52" width="100" height="8" as="geometry" />
        </mxCell>
        <mxCell id="amZI-zdP5LKouah3iNAe-148" value="+ Index(): Task&lt;IActionResult&gt;" style="text;strokeColor=none;fillColor=none;align=left;verticalAlign=top;spacingLeft=4;spacingRight=4;overflow=hidden;rotatable=0;points=[[0,0.5],[1,0.5]];portConstraint=eastwest;fontSize=10;" vertex="1" parent="amZI-zdP5LKouah3iNAe-145">
          <mxGeometry y="60" width="100" height="26" as="geometry" />
        </mxCell>
        <mxCell id="amZI-zdP5LKouah3iNAe-150" value="+ Details(int?): Task&lt;IActionResult&gt;" style="text;strokeColor=none;fillColor=none;align=left;verticalAlign=top;spacingLeft=4;spacingRight=4;overflow=hidden;rotatable=0;points=[[0,0.5],[1,0.5]];portConstraint=eastwest;fontSize=10;" vertex="1" parent="amZI-zdP5LKouah3iNAe-145">
          <mxGeometry y="86" width="100" height="26" as="geometry" />
        </mxCell>
        <mxCell id="amZI-zdP5LKouah3iNAe-151" value="+ Create(): IActionResult" style="text;strokeColor=none;fillColor=none;align=left;verticalAlign=top;spacingLeft=4;spacingRight=4;overflow=hidden;rotatable=0;points=[[0,0.5],[1,0.5]];portConstraint=eastwest;fontSize=10;" vertex="1" parent="amZI-zdP5LKouah3iNAe-145">
          <mxGeometry y="112" width="100" height="26" as="geometry" />
        </mxCell>
        <mxCell id="amZI-zdP5LKouah3iNAe-254" value="+ Create([Bind(&quot;RecipeID,RecipeName,RecipeDescription,&#xa;                         Servings,PrepareTime,Likes,RecipeApprovalStatusID,&#xa;                         UserID&quot;)]Recipe): Task&lt;IActionResult&gt;" style="text;strokeColor=none;fillColor=none;align=left;verticalAlign=top;spacingLeft=4;spacingRight=4;overflow=hidden;rotatable=0;points=[[0,0.5],[1,0.5]];portConstraint=eastwest;fontSize=10;" vertex="1" parent="amZI-zdP5LKouah3iNAe-145">
          <mxGeometry y="138" width="100" height="42" as="geometry" />
        </mxCell>
        <mxCell id="amZI-zdP5LKouah3iNAe-152" value="+ Edit(int?): Task&lt;IActionresult&gt;" style="text;strokeColor=none;fillColor=none;align=left;verticalAlign=top;spacingLeft=4;spacingRight=4;overflow=hidden;rotatable=0;points=[[0,0.5],[1,0.5]];portConstraint=eastwest;fontSize=10;" vertex="1" parent="amZI-zdP5LKouah3iNAe-145">
          <mxGeometry y="180" width="100" height="26" as="geometry" />
        </mxCell>
        <mxCell id="amZI-zdP5LKouah3iNAe-255" value="+ Edit(int, [Bind(&quot;RecipeID,RecipeName,RecipeDescription,&#xa;                           Servings,PrepareTime,Likes,RecipeApprovalStatusID,&#xa;                           UserID&quot;)]Recipe): Task&lt;IActionresult&gt;" style="text;strokeColor=none;fillColor=none;align=left;verticalAlign=top;spacingLeft=4;spacingRight=4;overflow=hidden;rotatable=0;points=[[0,0.5],[1,0.5]];portConstraint=eastwest;fontSize=10;" vertex="1" parent="amZI-zdP5LKouah3iNAe-145">
          <mxGeometry y="206" width="100" height="44" as="geometry" />
        </mxCell>
        <mxCell id="amZI-zdP5LKouah3iNAe-153" value="+ Delete(int?): Task&lt;IActionResult&gt;" style="text;strokeColor=none;fillColor=none;align=left;verticalAlign=top;spacingLeft=4;spacingRight=4;overflow=hidden;rotatable=0;points=[[0,0.5],[1,0.5]];portConstraint=eastwest;fontSize=10;" vertex="1" parent="amZI-zdP5LKouah3iNAe-145">
          <mxGeometry y="250" width="100" height="26" as="geometry" />
        </mxCell>
        <mxCell id="amZI-zdP5LKouah3iNAe-154" value="+ DeleteConfirmed(int): Task&lt;IActionResult&gt;" style="text;strokeColor=none;fillColor=none;align=left;verticalAlign=top;spacingLeft=4;spacingRight=4;overflow=hidden;rotatable=0;points=[[0,0.5],[1,0.5]];portConstraint=eastwest;fontSize=10;" vertex="1" parent="amZI-zdP5LKouah3iNAe-145">
          <mxGeometry y="276" width="100" height="26" as="geometry" />
        </mxCell>
        <mxCell id="amZI-zdP5LKouah3iNAe-155" value="+ RecipeExists(int): bool" style="text;strokeColor=none;fillColor=none;align=left;verticalAlign=top;spacingLeft=4;spacingRight=4;overflow=hidden;rotatable=0;points=[[0,0.5],[1,0.5]];portConstraint=eastwest;fontSize=10;" vertex="1" parent="amZI-zdP5LKouah3iNAe-145">
          <mxGeometry y="302" width="100" height="26" as="geometry" />
        </mxCell>
        <mxCell id="amZI-zdP5LKouah3iNAe-156" value="- _context: AppDbContext" style="text;strokeColor=none;fillColor=none;align=left;verticalAlign=top;spacingLeft=4;spacingRight=4;overflow=hidden;rotatable=0;points=[[0,0.5],[1,0.5]];portConstraint=eastwest;" vertex="1" parent="WIyWlLk6GJQsqaUBKTNV-1">
          <mxGeometry x="-260" y="40" width="160" height="26" as="geometry" />
        </mxCell>
        <mxCell id="amZI-zdP5LKouah3iNAe-157" value="Checkout" style="swimlane;fontStyle=1;align=center;verticalAlign=top;childLayout=stackLayout;horizontal=1;startSize=26;horizontalStack=0;resizeParent=1;resizeParentMax=0;resizeLast=0;collapsible=1;marginBottom=0;fontSize=10;" vertex="1" parent="WIyWlLk6GJQsqaUBKTNV-1">
          <mxGeometry x="-720" y="280" width="360" height="260" as="geometry">
            <mxRectangle x="-720" y="280" width="80" height="26" as="alternateBounds" />
          </mxGeometry>
        </mxCell>
        <mxCell id="amZI-zdP5LKouah3iNAe-161" value="- _context: AppDbContext" style="text;strokeColor=none;fillColor=none;align=left;verticalAlign=top;spacingLeft=4;spacingRight=4;overflow=hidden;rotatable=0;points=[[0,0.5],[1,0.5]];portConstraint=eastwest;fontSize=10;" vertex="1" parent="amZI-zdP5LKouah3iNAe-157">
          <mxGeometry y="26" width="360" height="26" as="geometry" />
        </mxCell>
        <mxCell id="amZI-zdP5LKouah3iNAe-162" value="- _SignInManager: SingInManager" style="text;strokeColor=none;fillColor=none;align=left;verticalAlign=top;spacingLeft=4;spacingRight=4;overflow=hidden;rotatable=0;points=[[0,0.5],[1,0.5]];portConstraint=eastwest;fontSize=10;" vertex="1" parent="amZI-zdP5LKouah3iNAe-157">
          <mxGeometry y="52" width="360" height="26" as="geometry" />
        </mxCell>
        <mxCell id="amZI-zdP5LKouah3iNAe-163" value="- _UserManager: UserManager" style="text;strokeColor=none;fillColor=none;align=left;verticalAlign=top;spacingLeft=4;spacingRight=4;overflow=hidden;rotatable=0;points=[[0,0.5],[1,0.5]];portConstraint=eastwest;fontSize=10;" vertex="1" parent="amZI-zdP5LKouah3iNAe-157">
          <mxGeometry y="78" width="360" height="26" as="geometry" />
        </mxCell>
        <mxCell id="amZI-zdP5LKouah3iNAe-159" value="" style="line;strokeWidth=1;fillColor=none;align=left;verticalAlign=middle;spacingTop=-1;spacingLeft=3;spacingRight=3;rotatable=0;labelPosition=right;points=[];portConstraint=eastwest;" vertex="1" parent="amZI-zdP5LKouah3iNAe-157">
          <mxGeometry y="104" width="360" height="8" as="geometry" />
        </mxCell>
        <mxCell id="amZI-zdP5LKouah3iNAe-160" value="+ Index(): Task&lt;IActionResult&gt;" style="text;strokeColor=none;fillColor=none;align=left;verticalAlign=top;spacingLeft=4;spacingRight=4;overflow=hidden;rotatable=0;points=[[0,0.5],[1,0.5]];portConstraint=eastwest;fontSize=10;" vertex="1" parent="amZI-zdP5LKouah3iNAe-157">
          <mxGeometry y="112" width="360" height="26" as="geometry" />
        </mxCell>
        <mxCell id="amZI-zdP5LKouah3iNAe-164" value="+ Success(string): IActionResult" style="text;strokeColor=none;fillColor=none;align=left;verticalAlign=top;spacingLeft=4;spacingRight=4;overflow=hidden;rotatable=0;points=[[0,0.5],[1,0.5]];portConstraint=eastwest;fontSize=10;" vertex="1" parent="amZI-zdP5LKouah3iNAe-157">
          <mxGeometry y="138" width="360" height="26" as="geometry" />
        </mxCell>
        <mxCell id="amZI-zdP5LKouah3iNAe-165" value="+ UpdateOrderSummary(): Task&lt;IActionResult&gt;" style="text;strokeColor=none;fillColor=none;align=left;verticalAlign=top;spacingLeft=4;spacingRight=4;overflow=hidden;rotatable=0;points=[[0,0.5],[1,0.5]];portConstraint=eastwest;fontSize=10;" vertex="1" parent="amZI-zdP5LKouah3iNAe-157">
          <mxGeometry y="164" width="360" height="26" as="geometry" />
        </mxCell>
        <mxCell id="amZI-zdP5LKouah3iNAe-166" value="+ SubmitOrder([Bind(&quot;OrderID,DeliveryOptions, FirstName,LastName,&#xa;                                   DeliveryEmail, PhoneNumber, DeliveryAddress,&#xa;                                   Suburb,ZipCode,Unit, NameOnCard,&#xa;                                   CreditCardNumber, ExpiryMonth,&#xa;                                   ExpiryYear,CVV&quot;)]OrderViewModel): Task&lt;IActionResult&gt;&#xa;" style="text;strokeColor=none;fillColor=none;align=left;verticalAlign=top;spacingLeft=4;spacingRight=4;overflow=hidden;rotatable=0;points=[[0,0.5],[1,0.5]];portConstraint=eastwest;fontSize=10;" vertex="1" parent="amZI-zdP5LKouah3iNAe-157">
          <mxGeometry y="190" width="360" height="70" as="geometry" />
        </mxCell>
        <mxCell id="amZI-zdP5LKouah3iNAe-167" value="Contact" style="swimlane;fontStyle=1;align=center;verticalAlign=top;childLayout=stackLayout;horizontal=1;startSize=26;horizontalStack=0;resizeParent=1;resizeParentMax=0;resizeLast=0;collapsible=1;marginBottom=0;fontSize=10;" vertex="1" collapsed="1" parent="WIyWlLk6GJQsqaUBKTNV-1">
          <mxGeometry x="-827" y="200" width="70" height="26" as="geometry">
            <mxRectangle x="-620" y="186" width="160" height="60" as="alternateBounds" />
          </mxGeometry>
        </mxCell>
        <mxCell id="amZI-zdP5LKouah3iNAe-169" value="" style="line;strokeWidth=1;fillColor=none;align=left;verticalAlign=middle;spacingTop=-1;spacingLeft=3;spacingRight=3;rotatable=0;labelPosition=right;points=[];portConstraint=eastwest;" vertex="1" parent="amZI-zdP5LKouah3iNAe-167">
          <mxGeometry y="26" width="70" height="8" as="geometry" />
        </mxCell>
        <mxCell id="amZI-zdP5LKouah3iNAe-170" value="+Index()" style="text;strokeColor=none;fillColor=none;align=left;verticalAlign=top;spacingLeft=4;spacingRight=4;overflow=hidden;rotatable=0;points=[[0,0.5],[1,0.5]];portConstraint=eastwest;" vertex="1" parent="amZI-zdP5LKouah3iNAe-167">
          <mxGeometry y="34" width="70" height="26" as="geometry" />
        </mxCell>
        <mxCell id="amZI-zdP5LKouah3iNAe-171" value="Email" style="swimlane;fontStyle=1;align=center;verticalAlign=top;childLayout=stackLayout;horizontal=1;startSize=26;horizontalStack=0;resizeParent=1;resizeParentMax=0;resizeLast=0;collapsible=1;marginBottom=0;fontSize=10;" vertex="1" collapsed="1" parent="WIyWlLk6GJQsqaUBKTNV-1">
          <mxGeometry x="-827" y="480" width="60" height="26" as="geometry">
            <mxRectangle x="-822" y="480" width="227" height="60" as="alternateBounds" />
          </mxGeometry>
        </mxCell>
        <mxCell id="amZI-zdP5LKouah3iNAe-173" value="" style="line;strokeWidth=1;fillColor=none;align=left;verticalAlign=middle;spacingTop=-1;spacingLeft=3;spacingRight=3;rotatable=0;labelPosition=right;points=[];portConstraint=eastwest;" vertex="1" parent="amZI-zdP5LKouah3iNAe-171">
          <mxGeometry y="26" width="60" height="8" as="geometry" />
        </mxCell>
        <mxCell id="amZI-zdP5LKouah3iNAe-174" value="+SendEmail(MailMessage): void" style="text;strokeColor=none;fillColor=none;align=left;verticalAlign=top;spacingLeft=4;spacingRight=4;overflow=hidden;rotatable=0;points=[[0,0.5],[1,0.5]];portConstraint=eastwest;" vertex="1" parent="amZI-zdP5LKouah3iNAe-171">
          <mxGeometry y="34" width="60" height="26" as="geometry" />
        </mxCell>
        <mxCell id="amZI-zdP5LKouah3iNAe-175" value="Home" style="swimlane;fontStyle=1;align=center;verticalAlign=top;childLayout=stackLayout;horizontal=1;startSize=26;horizontalStack=0;resizeParent=1;resizeParentMax=0;resizeLast=0;collapsible=1;marginBottom=0;fontSize=10;" vertex="1" collapsed="1" parent="WIyWlLk6GJQsqaUBKTNV-1">
          <mxGeometry x="-827" y="440" width="60" height="26" as="geometry">
            <mxRectangle x="-470" y="360" width="230" height="164" as="alternateBounds" />
          </mxGeometry>
        </mxCell>
        <mxCell id="amZI-zdP5LKouah3iNAe-179" value="-_context: AppDbContext" style="text;strokeColor=none;fillColor=none;align=left;verticalAlign=top;spacingLeft=4;spacingRight=4;overflow=hidden;rotatable=0;points=[[0,0.5],[1,0.5]];portConstraint=eastwest;" vertex="1" parent="amZI-zdP5LKouah3iNAe-175">
          <mxGeometry y="26" width="60" height="26" as="geometry" />
        </mxCell>
        <mxCell id="amZI-zdP5LKouah3iNAe-177" value="" style="line;strokeWidth=1;fillColor=none;align=left;verticalAlign=middle;spacingTop=-1;spacingLeft=3;spacingRight=3;rotatable=0;labelPosition=right;points=[];portConstraint=eastwest;" vertex="1" parent="amZI-zdP5LKouah3iNAe-175">
          <mxGeometry y="52" width="60" height="8" as="geometry" />
        </mxCell>
        <mxCell id="amZI-zdP5LKouah3iNAe-178" value="+Index(): Task &lt;IActionResult&gt;" style="text;strokeColor=none;fillColor=none;align=left;verticalAlign=top;spacingLeft=4;spacingRight=4;overflow=hidden;rotatable=0;points=[[0,0.5],[1,0.5]];portConstraint=eastwest;" vertex="1" parent="amZI-zdP5LKouah3iNAe-175">
          <mxGeometry y="60" width="60" height="26" as="geometry" />
        </mxCell>
        <mxCell id="amZI-zdP5LKouah3iNAe-184" value="+GetQuery(string, string): IActionResult&#xa;" style="text;strokeColor=none;fillColor=none;align=left;verticalAlign=top;spacingLeft=4;spacingRight=4;overflow=hidden;rotatable=0;points=[[0,0.5],[1,0.5]];portConstraint=eastwest;" vertex="1" parent="amZI-zdP5LKouah3iNAe-175">
          <mxGeometry y="86" width="60" height="26" as="geometry" />
        </mxCell>
        <mxCell id="amZI-zdP5LKouah3iNAe-185" value="+StartQuery(string, string): IActionResult&#xa;" style="text;strokeColor=none;fillColor=none;align=left;verticalAlign=top;spacingLeft=4;spacingRight=4;overflow=hidden;rotatable=0;points=[[0,0.5],[1,0.5]];portConstraint=eastwest;" vertex="1" parent="amZI-zdP5LKouah3iNAe-175">
          <mxGeometry y="112" width="60" height="26" as="geometry" />
        </mxCell>
        <mxCell id="amZI-zdP5LKouah3iNAe-186" value="+Error(): IActionResult&#xa;" style="text;strokeColor=none;fillColor=none;align=left;verticalAlign=top;spacingLeft=4;spacingRight=4;overflow=hidden;rotatable=0;points=[[0,0.5],[1,0.5]];portConstraint=eastwest;" vertex="1" parent="amZI-zdP5LKouah3iNAe-175">
          <mxGeometry y="138" width="60" height="26" as="geometry" />
        </mxCell>
        <mxCell id="amZI-zdP5LKouah3iNAe-180" value="Classname" style="swimlane;fontStyle=1;align=center;verticalAlign=top;childLayout=stackLayout;horizontal=1;startSize=26;horizontalStack=0;resizeParent=1;resizeParentMax=0;resizeLast=0;collapsible=1;marginBottom=0;fontSize=9;" vertex="1" parent="WIyWlLk6GJQsqaUBKTNV-1">
          <mxGeometry x="-250" y="80" width="160" height="86" as="geometry" />
        </mxCell>
        <mxCell id="amZI-zdP5LKouah3iNAe-181" value="+ field: type" style="text;strokeColor=none;fillColor=none;align=left;verticalAlign=top;spacingLeft=4;spacingRight=4;overflow=hidden;rotatable=0;points=[[0,0.5],[1,0.5]];portConstraint=eastwest;" vertex="1" parent="amZI-zdP5LKouah3iNAe-180">
          <mxGeometry y="26" width="160" height="26" as="geometry" />
        </mxCell>
        <mxCell id="amZI-zdP5LKouah3iNAe-182" value="" style="line;strokeWidth=1;fillColor=none;align=left;verticalAlign=middle;spacingTop=-1;spacingLeft=3;spacingRight=3;rotatable=0;labelPosition=right;points=[];portConstraint=eastwest;" vertex="1" parent="amZI-zdP5LKouah3iNAe-180">
          <mxGeometry y="52" width="160" height="8" as="geometry" />
        </mxCell>
        <mxCell id="amZI-zdP5LKouah3iNAe-183" value="+ method(type): type" style="text;strokeColor=none;fillColor=none;align=left;verticalAlign=top;spacingLeft=4;spacingRight=4;overflow=hidden;rotatable=0;points=[[0,0.5],[1,0.5]];portConstraint=eastwest;" vertex="1" parent="amZI-zdP5LKouah3iNAe-180">
          <mxGeometry y="60" width="160" height="26" as="geometry" />
        </mxCell>
        <mxCell id="amZI-zdP5LKouah3iNAe-187" value="Manage" style="swimlane;fontStyle=1;align=center;verticalAlign=top;childLayout=stackLayout;horizontal=1;startSize=26;horizontalStack=0;resizeParent=1;resizeParentMax=0;resizeLast=0;collapsible=1;marginBottom=0;fontSize=10;" vertex="1" collapsed="1" parent="WIyWlLk6GJQsqaUBKTNV-1">
          <mxGeometry x="-827" y="520" width="70" height="26" as="geometry">
            <mxRectangle x="-510" y="210" width="270" height="138" as="alternateBounds" />
          </mxGeometry>
        </mxCell>
        <mxCell id="amZI-zdP5LKouah3iNAe-188" value="+ _UserManager: UserManager&lt;ApplicationUser&gt;&#xa;" style="text;strokeColor=none;fillColor=none;align=left;verticalAlign=top;spacingLeft=4;spacingRight=4;overflow=hidden;rotatable=0;points=[[0,0.5],[1,0.5]];portConstraint=eastwest;" vertex="1" parent="amZI-zdP5LKouah3iNAe-187">
          <mxGeometry y="26" width="70" height="26" as="geometry" />
        </mxCell>
        <mxCell id="amZI-zdP5LKouah3iNAe-189" value="" style="line;strokeWidth=1;fillColor=none;align=left;verticalAlign=middle;spacingTop=-1;spacingLeft=3;spacingRight=3;rotatable=0;labelPosition=right;points=[];portConstraint=eastwest;" vertex="1" parent="amZI-zdP5LKouah3iNAe-187">
          <mxGeometry y="52" width="70" height="8" as="geometry" />
        </mxCell>
        <mxCell id="amZI-zdP5LKouah3iNAe-190" value="+ Index(string): IActionResult" style="text;strokeColor=none;fillColor=none;align=left;verticalAlign=top;spacingLeft=4;spacingRight=4;overflow=hidden;rotatable=0;points=[[0,0.5],[1,0.5]];portConstraint=eastwest;" vertex="1" parent="amZI-zdP5LKouah3iNAe-187">
          <mxGeometry y="60" width="70" height="26" as="geometry" />
        </mxCell>
        <mxCell id="amZI-zdP5LKouah3iNAe-191" value="+ AccountInformation(): Task&lt;IActionResult&gt;" style="text;strokeColor=none;fillColor=none;align=left;verticalAlign=top;spacingLeft=4;spacingRight=4;overflow=hidden;rotatable=0;points=[[0,0.5],[1,0.5]];portConstraint=eastwest;" vertex="1" parent="amZI-zdP5LKouah3iNAe-187">
          <mxGeometry y="86" width="70" height="26" as="geometry" />
        </mxCell>
        <mxCell id="amZI-zdP5LKouah3iNAe-192" value="+ MyOrders(): IActionResult" style="text;strokeColor=none;fillColor=none;align=left;verticalAlign=top;spacingLeft=4;spacingRight=4;overflow=hidden;rotatable=0;points=[[0,0.5],[1,0.5]];portConstraint=eastwest;" vertex="1" parent="amZI-zdP5LKouah3iNAe-187">
          <mxGeometry y="112" width="70" height="26" as="geometry" />
        </mxCell>
        <mxCell id="amZI-zdP5LKouah3iNAe-193" value="Order" style="swimlane;fontStyle=1;align=center;verticalAlign=top;childLayout=stackLayout;horizontal=1;startSize=26;horizontalStack=0;resizeParent=1;resizeParentMax=0;resizeLast=0;collapsible=1;marginBottom=0;fontSize=10;" vertex="1" collapsed="1" parent="WIyWlLk6GJQsqaUBKTNV-1">
          <mxGeometry x="-827" y="558.5" width="60" height="26" as="geometry">
            <mxRectangle x="-510" y="210" width="290" height="372" as="alternateBounds" />
          </mxGeometry>
        </mxCell>
        <mxCell id="amZI-zdP5LKouah3iNAe-197" value="- _context: AppDbContext" style="text;strokeColor=none;fillColor=none;align=left;verticalAlign=top;spacingLeft=4;spacingRight=4;overflow=hidden;rotatable=0;points=[[0,0.5],[1,0.5]];portConstraint=eastwest;" vertex="1" parent="amZI-zdP5LKouah3iNAe-193">
          <mxGeometry y="26" width="60" height="26" as="geometry" />
        </mxCell>
        <mxCell id="amZI-zdP5LKouah3iNAe-198" value="- _UserManager: UserManager&lt;ApplicationUser&gt;" style="text;strokeColor=none;fillColor=none;align=left;verticalAlign=top;spacingLeft=4;spacingRight=4;overflow=hidden;rotatable=0;points=[[0,0.5],[1,0.5]];portConstraint=eastwest;" vertex="1" parent="amZI-zdP5LKouah3iNAe-193">
          <mxGeometry y="52" width="60" height="26" as="geometry" />
        </mxCell>
        <mxCell id="amZI-zdP5LKouah3iNAe-199" value="- _SignInManager: SignInManager&lt;ApplicationUser&gt;" style="text;strokeColor=none;fillColor=none;align=left;verticalAlign=top;spacingLeft=4;spacingRight=4;overflow=hidden;rotatable=0;points=[[0,0.5],[1,0.5]];portConstraint=eastwest;" vertex="1" parent="amZI-zdP5LKouah3iNAe-193">
          <mxGeometry y="78" width="60" height="26" as="geometry" />
        </mxCell>
        <mxCell id="amZI-zdP5LKouah3iNAe-200" value="-  currentStockAvailable: int" style="text;strokeColor=none;fillColor=none;align=left;verticalAlign=top;spacingLeft=4;spacingRight=4;overflow=hidden;rotatable=0;points=[[0,0.5],[1,0.5]];portConstraint=eastwest;" vertex="1" parent="amZI-zdP5LKouah3iNAe-193">
          <mxGeometry y="104" width="60" height="26" as="geometry" />
        </mxCell>
        <mxCell id="amZI-zdP5LKouah3iNAe-195" value="" style="line;strokeWidth=1;fillColor=none;align=left;verticalAlign=middle;spacingTop=-1;spacingLeft=3;spacingRight=3;rotatable=0;labelPosition=right;points=[];portConstraint=eastwest;" vertex="1" parent="amZI-zdP5LKouah3iNAe-193">
          <mxGeometry y="130" width="60" height="8" as="geometry" />
        </mxCell>
        <mxCell id="amZI-zdP5LKouah3iNAe-196" value="+ InitializeUserCookie(string): Task&lt;IdentityResult&gt;" style="text;strokeColor=none;fillColor=none;align=left;verticalAlign=top;spacingLeft=4;spacingRight=4;overflow=hidden;rotatable=0;points=[[0,0.5],[1,0.5]];portConstraint=eastwest;" vertex="1" parent="amZI-zdP5LKouah3iNAe-193">
          <mxGeometry y="138" width="60" height="26" as="geometry" />
        </mxCell>
        <mxCell id="amZI-zdP5LKouah3iNAe-201" value="+ GetCurrentUser(): Task&lt;ApplicationUser&gt;" style="text;strokeColor=none;fillColor=none;align=left;verticalAlign=top;spacingLeft=4;spacingRight=4;overflow=hidden;rotatable=0;points=[[0,0.5],[1,0.5]];portConstraint=eastwest;" vertex="1" parent="amZI-zdP5LKouah3iNAe-193">
          <mxGeometry y="164" width="60" height="26" as="geometry" />
        </mxCell>
        <mxCell id="amZI-zdP5LKouah3iNAe-202" value="+ GetCurrentCount(): Task&lt;IActionResult&gt;" style="text;strokeColor=none;fillColor=none;align=left;verticalAlign=top;spacingLeft=4;spacingRight=4;overflow=hidden;rotatable=0;points=[[0,0.5],[1,0.5]];portConstraint=eastwest;" vertex="1" parent="amZI-zdP5LKouah3iNAe-193">
          <mxGeometry y="190" width="60" height="26" as="geometry" />
        </mxCell>
        <mxCell id="amZI-zdP5LKouah3iNAe-203" value="+ LoadCart(): Task&lt;IActionResult&gt;" style="text;strokeColor=none;fillColor=none;align=left;verticalAlign=top;spacingLeft=4;spacingRight=4;overflow=hidden;rotatable=0;points=[[0,0.5],[1,0.5]];portConstraint=eastwest;" vertex="1" parent="amZI-zdP5LKouah3iNAe-193">
          <mxGeometry y="216" width="60" height="26" as="geometry" />
        </mxCell>
        <mxCell id="amZI-zdP5LKouah3iNAe-204" value="+ RemoveItem(int): Task&lt;IActionResult&gt;" style="text;strokeColor=none;fillColor=none;align=left;verticalAlign=top;spacingLeft=4;spacingRight=4;overflow=hidden;rotatable=0;points=[[0,0.5],[1,0.5]];portConstraint=eastwest;" vertex="1" parent="amZI-zdP5LKouah3iNAe-193">
          <mxGeometry y="242" width="60" height="26" as="geometry" />
        </mxCell>
        <mxCell id="amZI-zdP5LKouah3iNAe-205" value="+ UpdateItemQuantity(int, int): Task&lt;IActionResult&gt;" style="text;strokeColor=none;fillColor=none;align=left;verticalAlign=top;spacingLeft=4;spacingRight=4;overflow=hidden;rotatable=0;points=[[0,0.5],[1,0.5]];portConstraint=eastwest;" vertex="1" parent="amZI-zdP5LKouah3iNAe-193">
          <mxGeometry y="268" width="60" height="26" as="geometry" />
        </mxCell>
        <mxCell id="amZI-zdP5LKouah3iNAe-206" value="+ HandlerOrder(int, int): Task&lt;IActionResult&gt;" style="text;strokeColor=none;fillColor=none;align=left;verticalAlign=top;spacingLeft=4;spacingRight=4;overflow=hidden;rotatable=0;points=[[0,0.5],[1,0.5]];portConstraint=eastwest;" vertex="1" parent="amZI-zdP5LKouah3iNAe-193">
          <mxGeometry y="294" width="60" height="26" as="geometry" />
        </mxCell>
        <mxCell id="amZI-zdP5LKouah3iNAe-207" value="+ CreateOrder(string): Order" style="text;strokeColor=none;fillColor=none;align=left;verticalAlign=top;spacingLeft=4;spacingRight=4;overflow=hidden;rotatable=0;points=[[0,0.5],[1,0.5]];portConstraint=eastwest;" vertex="1" parent="amZI-zdP5LKouah3iNAe-193">
          <mxGeometry y="320" width="60" height="26" as="geometry" />
        </mxCell>
        <mxCell id="amZI-zdP5LKouah3iNAe-208" value="+ AttachOrderDetails(int, int, string): Task&lt;bool&gt;" style="text;strokeColor=none;fillColor=none;align=left;verticalAlign=top;spacingLeft=4;spacingRight=4;overflow=hidden;rotatable=0;points=[[0,0.5],[1,0.5]];portConstraint=eastwest;" vertex="1" parent="amZI-zdP5LKouah3iNAe-193">
          <mxGeometry y="346" width="60" height="26" as="geometry" />
        </mxCell>
        <mxCell id="amZI-zdP5LKouah3iNAe-209" value="Product" style="swimlane;fontStyle=1;align=center;verticalAlign=top;childLayout=stackLayout;horizontal=1;startSize=26;horizontalStack=0;resizeParent=1;resizeParentMax=0;resizeLast=0;collapsible=1;marginBottom=0;fontSize=10;" vertex="1" collapsed="1" parent="WIyWlLk6GJQsqaUBKTNV-1">
          <mxGeometry x="-827" y="600" width="70" height="26" as="geometry">
            <mxRectangle x="-510" y="260" width="360" height="398" as="alternateBounds" />
          </mxGeometry>
        </mxCell>
        <mxCell id="amZI-zdP5LKouah3iNAe-213" value="- _context: AppDbContext" style="text;strokeColor=none;fillColor=none;align=left;verticalAlign=top;spacingLeft=4;spacingRight=4;overflow=hidden;rotatable=0;points=[[0,0.5],[1,0.5]];portConstraint=eastwest;" vertex="1" parent="amZI-zdP5LKouah3iNAe-209">
          <mxGeometry y="26" width="70" height="26" as="geometry" />
        </mxCell>
        <mxCell id="amZI-zdP5LKouah3iNAe-214" value="- _userManager: UserManager&lt;ApplicationUser&gt;" style="text;strokeColor=none;fillColor=none;align=left;verticalAlign=top;spacingLeft=4;spacingRight=4;overflow=hidden;rotatable=0;points=[[0,0.5],[1,0.5]];portConstraint=eastwest;" vertex="1" parent="amZI-zdP5LKouah3iNAe-209">
          <mxGeometry y="52" width="70" height="26" as="geometry" />
        </mxCell>
        <mxCell id="amZI-zdP5LKouah3iNAe-215" value="- _productContext: List&lt;Product&gt;" style="text;strokeColor=none;fillColor=none;align=left;verticalAlign=top;spacingLeft=4;spacingRight=4;overflow=hidden;rotatable=0;points=[[0,0.5],[1,0.5]];portConstraint=eastwest;" vertex="1" parent="amZI-zdP5LKouah3iNAe-209">
          <mxGeometry y="78" width="70" height="26" as="geometry" />
        </mxCell>
        <mxCell id="amZI-zdP5LKouah3iNAe-216" value="- ITEMS_PER_PAGE: int" style="text;strokeColor=none;fillColor=none;align=left;verticalAlign=top;spacingLeft=4;spacingRight=4;overflow=hidden;rotatable=0;points=[[0,0.5],[1,0.5]];portConstraint=eastwest;" vertex="1" parent="amZI-zdP5LKouah3iNAe-209">
          <mxGeometry y="104" width="70" height="26" as="geometry" />
        </mxCell>
        <mxCell id="amZI-zdP5LKouah3iNAe-217" value="- _currentRange: int" style="text;strokeColor=none;fillColor=none;align=left;verticalAlign=top;spacingLeft=4;spacingRight=4;overflow=hidden;rotatable=0;points=[[0,0.5],[1,0.5]];portConstraint=eastwest;" vertex="1" parent="amZI-zdP5LKouah3iNAe-209">
          <mxGeometry y="130" width="70" height="26" as="geometry" />
        </mxCell>
        <mxCell id="amZI-zdP5LKouah3iNAe-211" value="" style="line;strokeWidth=1;fillColor=none;align=left;verticalAlign=middle;spacingTop=-1;spacingLeft=3;spacingRight=3;rotatable=0;labelPosition=right;points=[];portConstraint=eastwest;" vertex="1" parent="amZI-zdP5LKouah3iNAe-209">
          <mxGeometry y="156" width="70" height="8" as="geometry" />
        </mxCell>
        <mxCell id="amZI-zdP5LKouah3iNAe-212" value="+ SortProductList(List&lt;Product&gt;, int): List&lt;Product&gt;" style="text;strokeColor=none;fillColor=none;align=left;verticalAlign=top;spacingLeft=4;spacingRight=4;overflow=hidden;rotatable=0;points=[[0,0.5],[1,0.5]];portConstraint=eastwest;" vertex="1" parent="amZI-zdP5LKouah3iNAe-209">
          <mxGeometry y="164" width="70" height="26" as="geometry" />
        </mxCell>
        <mxCell id="amZI-zdP5LKouah3iNAe-218" value="+ UpdatePagination(): IActionResult" style="text;strokeColor=none;fillColor=none;align=left;verticalAlign=top;spacingLeft=4;spacingRight=4;overflow=hidden;rotatable=0;points=[[0,0.5],[1,0.5]];portConstraint=eastwest;" vertex="1" parent="amZI-zdP5LKouah3iNAe-209">
          <mxGeometry y="190" width="70" height="26" as="geometry" />
        </mxCell>
        <mxCell id="amZI-zdP5LKouah3iNAe-219" value="+ Index(string): Task&lt;IActionResult&gt;" style="text;strokeColor=none;fillColor=none;align=left;verticalAlign=top;spacingLeft=4;spacingRight=4;overflow=hidden;rotatable=0;points=[[0,0.5],[1,0.5]];portConstraint=eastwest;" vertex="1" parent="amZI-zdP5LKouah3iNAe-209">
          <mxGeometry y="216" width="70" height="26" as="geometry" />
        </mxCell>
        <mxCell id="amZI-zdP5LKouah3iNAe-220" value="+ Details(int): Task&lt;IActionResult&gt;" style="text;strokeColor=none;fillColor=none;align=left;verticalAlign=top;spacingLeft=4;spacingRight=4;overflow=hidden;rotatable=0;points=[[0,0.5],[1,0.5]];portConstraint=eastwest;" vertex="1" parent="amZI-zdP5LKouah3iNAe-209">
          <mxGeometry y="242" width="70" height="26" as="geometry" />
        </mxCell>
        <mxCell id="amZI-zdP5LKouah3iNAe-221" value="+ GetAllProducts(int): Task&lt;IActionResult&gt;" style="text;strokeColor=none;fillColor=none;align=left;verticalAlign=top;spacingLeft=4;spacingRight=4;overflow=hidden;rotatable=0;points=[[0,0.5],[1,0.5]];portConstraint=eastwest;" vertex="1" parent="amZI-zdP5LKouah3iNAe-209">
          <mxGeometry y="268" width="70" height="26" as="geometry" />
        </mxCell>
        <mxCell id="amZI-zdP5LKouah3iNAe-222" value="+ GetAllProductsByName(string, int): Task&lt;IActionResult&gt;" style="text;strokeColor=none;fillColor=none;align=left;verticalAlign=top;spacingLeft=4;spacingRight=4;overflow=hidden;rotatable=0;points=[[0,0.5],[1,0.5]];portConstraint=eastwest;" vertex="1" parent="amZI-zdP5LKouah3iNAe-209">
          <mxGeometry y="294" width="70" height="26" as="geometry" />
        </mxCell>
        <mxCell id="amZI-zdP5LKouah3iNAe-223" value="+ GetAllProductsByCategoryName(string, int): Task&lt;IActionResult&gt;" style="text;strokeColor=none;fillColor=none;align=left;verticalAlign=top;spacingLeft=4;spacingRight=4;overflow=hidden;rotatable=0;points=[[0,0.5],[1,0.5]];portConstraint=eastwest;" vertex="1" parent="amZI-zdP5LKouah3iNAe-209">
          <mxGeometry y="320" width="70" height="26" as="geometry" />
        </mxCell>
        <mxCell id="amZI-zdP5LKouah3iNAe-224" value="+ SortProducts(int): IActionResult" style="text;strokeColor=none;fillColor=none;align=left;verticalAlign=top;spacingLeft=4;spacingRight=4;overflow=hidden;rotatable=0;points=[[0,0.5],[1,0.5]];portConstraint=eastwest;" vertex="1" parent="amZI-zdP5LKouah3iNAe-209">
          <mxGeometry y="346" width="70" height="26" as="geometry" />
        </mxCell>
        <mxCell id="amZI-zdP5LKouah3iNAe-225" value="+ ProductNextData(int): Task&lt;IActionResult&gt;" style="text;strokeColor=none;fillColor=none;align=left;verticalAlign=top;spacingLeft=4;spacingRight=4;overflow=hidden;rotatable=0;points=[[0,0.5],[1,0.5]];portConstraint=eastwest;" vertex="1" parent="amZI-zdP5LKouah3iNAe-209">
          <mxGeometry y="372" width="70" height="26" as="geometry" />
        </mxCell>
        <mxCell id="amZI-zdP5LKouah3iNAe-226" value="Recipe" style="swimlane;fontStyle=1;align=center;verticalAlign=top;childLayout=stackLayout;horizontal=1;startSize=26;horizontalStack=0;resizeParent=1;resizeParentMax=0;resizeLast=0;collapsible=1;marginBottom=0;fontSize=10;" vertex="1" collapsed="1" parent="WIyWlLk6GJQsqaUBKTNV-1">
          <mxGeometry x="-827" y="640" width="60" height="26" as="geometry">
            <mxRectangle x="-510" y="330" width="160" height="86" as="alternateBounds" />
          </mxGeometry>
        </mxCell>
        <mxCell id="amZI-zdP5LKouah3iNAe-228" value="" style="line;strokeWidth=1;fillColor=none;align=left;verticalAlign=middle;spacingTop=-1;spacingLeft=3;spacingRight=3;rotatable=0;labelPosition=right;points=[];portConstraint=eastwest;" vertex="1" parent="amZI-zdP5LKouah3iNAe-226">
          <mxGeometry y="26" width="60" height="8" as="geometry" />
        </mxCell>
        <mxCell id="amZI-zdP5LKouah3iNAe-229" value="+ Index(): IActionResult" style="text;strokeColor=none;fillColor=none;align=left;verticalAlign=top;spacingLeft=4;spacingRight=4;overflow=hidden;rotatable=0;points=[[0,0.5],[1,0.5]];portConstraint=eastwest;" vertex="1" parent="amZI-zdP5LKouah3iNAe-226">
          <mxGeometry y="34" width="60" height="26" as="geometry" />
        </mxCell>
        <mxCell id="amZI-zdP5LKouah3iNAe-230" value="+ Details(int): IActionResult" style="text;strokeColor=none;fillColor=none;align=left;verticalAlign=top;spacingLeft=4;spacingRight=4;overflow=hidden;rotatable=0;points=[[0,0.5],[1,0.5]];portConstraint=eastwest;" vertex="1" parent="amZI-zdP5LKouah3iNAe-226">
          <mxGeometry y="60" width="60" height="26" as="geometry" />
        </mxCell>
        <mxCell id="amZI-zdP5LKouah3iNAe-231" value="Review" style="swimlane;fontStyle=1;align=center;verticalAlign=top;childLayout=stackLayout;horizontal=1;startSize=26;horizontalStack=0;resizeParent=1;resizeParentMax=0;resizeLast=0;collapsible=1;marginBottom=0;fontSize=10;" vertex="1" collapsed="1" parent="WIyWlLk6GJQsqaUBKTNV-1">
          <mxGeometry x="-827" y="400" width="60" height="26" as="geometry">
            <mxRectangle x="-600" y="310" width="560" height="112" as="alternateBounds" />
          </mxGeometry>
        </mxCell>
        <mxCell id="amZI-zdP5LKouah3iNAe-235" value="- _context: AppDbContext" style="text;strokeColor=none;fillColor=none;align=left;verticalAlign=top;spacingLeft=4;spacingRight=4;overflow=hidden;rotatable=0;points=[[0,0.5],[1,0.5]];portConstraint=eastwest;" vertex="1" parent="amZI-zdP5LKouah3iNAe-231">
          <mxGeometry y="26" width="60" height="26" as="geometry" />
        </mxCell>
        <mxCell id="amZI-zdP5LKouah3iNAe-233" value="" style="line;strokeWidth=1;fillColor=none;align=left;verticalAlign=middle;spacingTop=-1;spacingLeft=3;spacingRight=3;rotatable=0;labelPosition=right;points=[];portConstraint=eastwest;" vertex="1" parent="amZI-zdP5LKouah3iNAe-231">
          <mxGeometry y="52" width="60" height="8" as="geometry" />
        </mxCell>
        <mxCell id="amZI-zdP5LKouah3iNAe-234" value="+ RefreshReview(): IActionResult" style="text;strokeColor=none;fillColor=none;align=left;verticalAlign=top;spacingLeft=4;spacingRight=4;overflow=hidden;rotatable=0;points=[[0,0.5],[1,0.5]];portConstraint=eastwest;" vertex="1" parent="amZI-zdP5LKouah3iNAe-231">
          <mxGeometry y="60" width="60" height="26" as="geometry" />
        </mxCell>
        <mxCell id="amZI-zdP5LKouah3iNAe-236" value="+ CreateReview([Bind(&quot;UserID,ProductID,ReviewContent,ReviewStars&quot;)]ReviewViewModel): IActionResult" style="text;strokeColor=none;fillColor=none;align=left;verticalAlign=top;spacingLeft=4;spacingRight=4;overflow=hidden;rotatable=0;points=[[0,0.5],[1,0.5]];portConstraint=eastwest;" vertex="1" parent="amZI-zdP5LKouah3iNAe-231">
          <mxGeometry y="86" width="60" height="26" as="geometry" />
        </mxCell>
      </root>
    </mxGraphModel>
  </diagram>
</mxfile>
